<svg xmlns="http://www.w3.org/2000/svg" viewBox="0 0 399.38 64.08">
  <defs>
    <style>
      .cls-1 {
        fill: #ff4a86;
      }

      .cls-1,
      .cls-2,
      .cls-3,
      .cls-4 {
        stroke: #000;
        stroke-miterlimit: 10;
      }

      .cls-2 {
        fill: #ea95a8;
      }

      .cls-3 {
        fill: #fff;
      }

      .cls-4 {
        fill: #7f3d87;
      }
    </style>
  </defs>
  <g id="Camada_2" data-name="Camada 2">
    <g id="Camada_2-2" data-name="Camada 2">
      <path class="cls-1" d="M.5,13.45H24.93v8.64H9.57v4.83h11.8v8.64H9.57V49H.5Z" />
      <path class="cls-1"
        d="M20.1,49,37.18,13.59h2L56.33,49h-9.4l-2.62-5.38H32.1L29.48,49ZM35.93,36.53h4.56l-2.27-4.8Z" />
      <path class="cls-1" d="M59.41,13.54h8.66V40.35H83.84V49H59.41Z" />
      <path class="cls-1" d="M86.92,13.45h24.43v8.64H96v4.83h11.8v8.64H96v4.83h15.36V49H86.92Z" />
      <path class="cls-1"
        d="M147,13.37a19.63,19.63,0,0,1,12.83,5.44l.56.55-6.22,6.17-.59-.54A10.74,10.74,0,0,0,146,22.05a11,11,0,0,0-7.56,2.71,8.35,8.35,0,0,0,0,13.07,11.11,11.11,0,0,0,7.56,2.7,10.68,10.68,0,0,0,7.6-2.94l.59-.55,6.22,6.17-.55.54a18.78,18.78,0,0,1-6.08,4A20.94,20.94,0,0,1,146,49.2,20.7,20.7,0,0,1,131.81,44a17.41,17.41,0,0,1,0-25.42A20.57,20.57,0,0,1,146,13.26H147Z" />
      <path class="cls-1"
        d="M178.3,13.26a18.65,18.65,0,0,1,13.35,5.29,17,17,0,0,1,5.53,12.72A17,17,0,0,1,191.65,44,19.65,19.65,0,0,1,165,44a17.42,17.42,0,0,1,0-25.42A18.66,18.66,0,0,1,178.3,13.26Zm0,8.72a9.22,9.22,0,0,0-6.82,2.71,8.42,8.42,0,0,0,0,13.08,10,10,0,0,0,13.64,0,8.26,8.26,0,0,0,3.13-6.53,8.37,8.37,0,0,0-3.13-6.54A9.32,9.32,0,0,0,178.3,22Z" />
      <path class="cls-1" d="M202.13,13.45l20.73,18.64V13.45h8.95V49h-1.95L209.17,30.37V49h-8.92V13.45Z" />
      <path class="cls-1"
        d="M253.73,13.26a18.63,18.63,0,0,1,13.35,5.29,17,17,0,0,1,5.53,12.72A17,17,0,0,1,267.08,44a19.65,19.65,0,0,1-26.69,0,17.42,17.42,0,0,1,0-25.42A18.66,18.66,0,0,1,253.73,13.26Zm0,8.72a9.22,9.22,0,0,0-6.82,2.71,8.44,8.44,0,0,0,0,13.08,10,10,0,0,0,13.64,0,8.23,8.23,0,0,0,3.13-6.53,8.34,8.34,0,0,0-3.13-6.54A9.32,9.32,0,0,0,253.73,22Z" />
      <path class="cls-1"
        d="M283.19,37.75c0,1.31,1.56,2.59,3.26,2.81h.46c1.81,0,3.75-1.34,3.75-2.71,0-2.34-3.83-2.71-7-3.63-4.92-1.46-9.05-5-9.05-10,0-6,5.21-10.92,12.31-10.92,6.47,0,11.4,4.32,12.18,9.93l.09.69-9.1,1.83c0-2.17-.89-3.75-3.12-3.75a3,3,0,0,0-3.17,2.71c0,2.34,3.62,3.09,6.61,3.85,5.06,1.27,9.35,4.7,9.35,9.8,0,6.08-5.76,10.94-12.82,10.94-6.48,0-11.86-4.26-12.72-9.93l-.11-.7,9.05-1.84Z" />
      <path class="cls-1"
        d="M322.24,13.37a19.63,19.63,0,0,1,12.83,5.44l.56.55-6.22,6.17-.58-.54a10.74,10.74,0,0,0-7.59-2.94,11,11,0,0,0-7.55,2.71,8.36,8.36,0,0,0,0,13.07,11.11,11.11,0,0,0,7.56,2.7,10.7,10.7,0,0,0,7.61-2.94l.58-.55,6.22,6.17-.55.54a18.78,18.78,0,0,1-6.08,4,21.8,21.8,0,0,1-22-3.79,17.41,17.41,0,0,1,0-25.42,20.58,20.58,0,0,1,14.16-5.29h1Z" />
      <path class="cls-1"
        d="M353.55,13.26a18.63,18.63,0,0,1,13.35,5.29,17,17,0,0,1,5.53,12.72A17,17,0,0,1,366.9,44a19.65,19.65,0,0,1-26.69,0,17.41,17.41,0,0,1,0-25.42A18.62,18.62,0,0,1,353.55,13.26Zm0,8.72a9.22,9.22,0,0,0-6.82,2.71,8.43,8.43,0,0,0,0,13.08,10,10,0,0,0,13.63,0,8.23,8.23,0,0,0,3.13-6.53,8.34,8.34,0,0,0-3.13-6.54A9.32,9.32,0,0,0,353.55,22Z" />
      <path class="cls-2" d="M4.22,11H28.66v8.63H13.3v4.84H25.1v8.63H13.3V46.59H4.22Z" />
      <path class="cls-2"
        d="M23.82,46.55,40.91,11.17h2L60.06,46.55h-9.4L48,41.16H35.83L33.2,46.55ZM39.65,34.11h4.56L42,29.32Z" />
      <path class="cls-2" d="M63.13,11.13h8.66v26.8H87.57v8.62H63.13Z" />
      <path class="cls-2" d="M90.64,11h24.44v8.63H99.71v4.84h11.81v8.63H99.71V38h15.37v8.61H90.64Z" />
      <path class="cls-2"
        d="M150.71,11a19.68,19.68,0,0,1,12.83,5.45l.56.54-6.22,6.17-.58-.54a10.74,10.74,0,0,0-7.59-2.94,11,11,0,0,0-7.55,2.71,8.37,8.37,0,0,0,0,13.08,11.1,11.1,0,0,0,7.56,2.69,10.66,10.66,0,0,0,7.61-2.94l.58-.54,6.22,6.16-.55.55a18.81,18.81,0,0,1-6.07,4,21.78,21.78,0,0,1-22-3.78,17,17,0,0,1-5.5-12.7,17.1,17.1,0,0,1,5.5-12.72,20.56,20.56,0,0,1,14.16-5.3h1.05Z" />
      <path class="cls-2"
        d="M182,10.84a18.59,18.59,0,0,1,13.34,5.3,17,17,0,0,1,5.53,12.72,16.92,16.92,0,0,1-5.53,12.7,19.64,19.64,0,0,1-26.69,0,17,17,0,0,1-5.51-12.7,17.11,17.11,0,0,1,5.51-12.72A18.6,18.6,0,0,1,182,10.84Zm0,8.73a9.27,9.27,0,0,0-6.83,2.7,8.44,8.44,0,0,0-3.11,6.55,8.32,8.32,0,0,0,3.11,6.53A9.31,9.31,0,0,0,182,38a9.41,9.41,0,0,0,6.81-2.69,8.4,8.4,0,0,0,0-13.07A9.27,9.27,0,0,0,182,19.57Z" />
      <path class="cls-2" d="M205.85,11l20.74,18.64V11h8.94V46.55h-1.95L212.9,28v18.6H204V11Z" />
      <path class="cls-2"
        d="M257.46,10.84a18.63,18.63,0,0,1,13.35,5.3,17,17,0,0,1,5.52,12.72,16.92,16.92,0,0,1-5.53,12.7,19.64,19.64,0,0,1-26.69,0,17,17,0,0,1-5.5-12.7,17.1,17.1,0,0,1,5.5-12.72A18.61,18.61,0,0,1,257.46,10.84Zm0,8.73a9.27,9.27,0,0,0-6.83,2.7,8.44,8.44,0,0,0-3.11,6.55,8.32,8.32,0,0,0,3.11,6.53A9.31,9.31,0,0,0,257.46,38a9.41,9.41,0,0,0,6.81-2.69,8.38,8.38,0,0,0,0-13.07A9.27,9.27,0,0,0,257.46,19.57Z" />
      <path class="cls-2"
        d="M286.91,35.34c0,1.31,1.57,2.59,3.26,2.81h.47c1.81,0,3.74-1.35,3.74-2.71,0-2.35-3.83-2.71-7-3.64-4.92-1.45-9.05-5-9.05-10,0-6,5.21-10.93,12.31-10.93,6.48,0,11.4,4.32,12.18,9.94l.1.69-9.1,1.83c0-2.18-.89-3.76-3.13-3.76a3,3,0,0,0-3.16,2.71c0,2.34,3.62,3.1,6.61,3.86,5.05,1.27,9.34,4.7,9.34,9.79,0,6.09-5.76,10.94-12.81,10.94-6.48,0-11.86-4.26-12.73-9.93l-.1-.69,9-1.85Z" />
      <path class="cls-2"
        d="M326,11a19.65,19.65,0,0,1,12.82,5.45l.57.54-6.23,6.17-.58-.54A10.74,10.74,0,0,0,325,19.63a11,11,0,0,0-7.55,2.71,8.36,8.36,0,0,0,0,13.08A11.06,11.06,0,0,0,325,38.11a10.64,10.64,0,0,0,7.61-2.94l.58-.54,6.22,6.16-.55.55a18.71,18.71,0,0,1-6.07,4,21.76,21.76,0,0,1-22-3.78,17,17,0,0,1-5.51-12.7,17.14,17.14,0,0,1,5.5-12.72,20.56,20.56,0,0,1,14.16-5.3H326Z" />
      <path class="cls-2"
        d="M357.28,10.84a18.63,18.63,0,0,1,13.35,5.3,17,17,0,0,1,5.52,12.72,16.92,16.92,0,0,1-5.53,12.7,19.64,19.64,0,0,1-26.69,0,17,17,0,0,1-5.5-12.7,17.1,17.1,0,0,1,5.5-12.72A18.61,18.61,0,0,1,357.28,10.84Zm0,8.73a9.27,9.27,0,0,0-6.83,2.7,8.44,8.44,0,0,0-3.11,6.55,8.32,8.32,0,0,0,3.11,6.53A9.31,9.31,0,0,0,357.28,38a9.41,9.41,0,0,0,6.81-2.69,8.26,8.26,0,0,0,3.13-6.53,8.36,8.36,0,0,0-3.13-6.54A9.3,9.3,0,0,0,357.28,19.57Z" />
      <path class="cls-3" d="M8.22,9H32.66v8.63H17.3v4.84H29.1v8.63H17.3V44.59H8.22Z" />
      <path class="cls-3"
        d="M27.82,44.55,44.91,9.17h2L64.06,44.55h-9.4L52,39.16H39.83L37.2,44.55ZM43.65,32.11h4.56L46,27.32Z" />
      <path class="cls-3" d="M67.13,9.13h8.66v26.8H91.57v8.62H67.13Z" />
      <path class="cls-3" d="M94.64,9h24.44v8.63H103.71v4.84h11.81v8.63H103.71V36h15.37v8.61H94.64Z" />
      <path class="cls-3"
        d="M154.71,9a19.68,19.68,0,0,1,12.83,5.45l.56.54-6.22,6.17-.58-.54a10.74,10.74,0,0,0-7.59-2.94,11,11,0,0,0-7.55,2.71,8.37,8.37,0,0,0,0,13.08,11.1,11.1,0,0,0,7.56,2.69,10.66,10.66,0,0,0,7.61-2.94l.58-.54,6.22,6.16-.55.55a18.81,18.81,0,0,1-6.07,4,21.78,21.78,0,0,1-22-3.78,17,17,0,0,1-5.5-12.7,17.1,17.1,0,0,1,5.5-12.72,20.56,20.56,0,0,1,14.16-5.3h1.05Z" />
      <path class="cls-3"
        d="M186,8.84a18.59,18.59,0,0,1,13.34,5.3,17,17,0,0,1,5.53,12.72,16.92,16.92,0,0,1-5.53,12.7,19.64,19.64,0,0,1-26.69,0,17,17,0,0,1-5.51-12.7,17.11,17.11,0,0,1,5.51-12.72A18.6,18.6,0,0,1,186,8.84Zm0,8.73a9.27,9.27,0,0,0-6.83,2.7,8.44,8.44,0,0,0-3.11,6.55,8.32,8.32,0,0,0,3.11,6.53A9.31,9.31,0,0,0,186,36a9.41,9.41,0,0,0,6.81-2.69,8.4,8.4,0,0,0,0-13.07A9.27,9.27,0,0,0,186,17.57Z" />
      <path class="cls-3" d="M209.85,9l20.74,18.64V9h8.94V44.55h-1.95L216.9,26v18.6H208V9Z" />
      <path class="cls-3"
        d="M261.46,8.84a18.63,18.63,0,0,1,13.35,5.3,17,17,0,0,1,5.52,12.72,16.92,16.92,0,0,1-5.53,12.7,19.64,19.64,0,0,1-26.69,0,17,17,0,0,1-5.5-12.7,17.1,17.1,0,0,1,5.5-12.72A18.61,18.61,0,0,1,261.46,8.84Zm0,8.73a9.27,9.27,0,0,0-6.83,2.7,8.44,8.44,0,0,0-3.11,6.55,8.32,8.32,0,0,0,3.11,6.53A9.31,9.31,0,0,0,261.46,36a9.41,9.41,0,0,0,6.81-2.69,8.38,8.38,0,0,0,0-13.07A9.27,9.27,0,0,0,261.46,17.57Z" />
      <path class="cls-3"
        d="M290.91,33.34c0,1.31,1.57,2.59,3.26,2.81h.47c1.81,0,3.74-1.35,3.74-2.71,0-2.35-3.83-2.71-7-3.64-4.92-1.45-9.05-5-9.05-10,0-6,5.21-10.93,12.31-10.93,6.48,0,11.4,4.32,12.18,9.94l.1.69-9.1,1.83c0-2.18-.89-3.76-3.13-3.76a3,3,0,0,0-3.16,2.71c0,2.34,3.62,3.1,6.61,3.86,5.05,1.27,9.34,4.7,9.34,9.79,0,6.09-5.76,10.94-12.81,10.94-6.48,0-11.86-4.26-12.73-9.93l-.1-.69,9-1.85Z" />
      <path class="cls-3"
        d="M330,9a19.65,19.65,0,0,1,12.82,5.45l.57.54-6.23,6.17-.58-.54A10.74,10.74,0,0,0,329,17.63a11,11,0,0,0-7.55,2.71,8.36,8.36,0,0,0,0,13.08A11.06,11.06,0,0,0,329,36.11a10.64,10.64,0,0,0,7.61-2.94l.58-.54,6.22,6.16-.55.55a18.71,18.71,0,0,1-6.07,4,21.76,21.76,0,0,1-22-3.78,17,17,0,0,1-5.51-12.7,17.14,17.14,0,0,1,5.5-12.72,20.56,20.56,0,0,1,14.16-5.3H330Z" />
      <path class="cls-3"
        d="M361.28,8.84a18.63,18.63,0,0,1,13.35,5.3,17,17,0,0,1,5.52,12.72,16.92,16.92,0,0,1-5.53,12.7,19.64,19.64,0,0,1-26.69,0,17,17,0,0,1-5.5-12.7,17.1,17.1,0,0,1,5.5-12.72A18.61,18.61,0,0,1,361.28,8.84Zm0,8.73a9.27,9.27,0,0,0-6.83,2.7,8.44,8.44,0,0,0-3.11,6.55,8.32,8.32,0,0,0,3.11,6.53A9.31,9.31,0,0,0,361.28,36a9.41,9.41,0,0,0,6.81-2.69,8.26,8.26,0,0,0,3.13-6.53,8.36,8.36,0,0,0-3.13-6.54A9.3,9.3,0,0,0,361.28,17.57Z" />
      <path class="cls-4"
        d="M368.26,52.52a8.42,8.42,0,0,1,10.26-6c4.23,1.26,6.63,6.18,5.26,10.77a8.41,8.41,0,0,1-10.26,5.94C369.26,62,366.87,57.15,368.26,52.52ZM398.74,4.93,384.53,46.1l-10.85-3.25.32-1.19c3.79-14.1,6.48-25.81,10-39.74l.33-1.29Z" />
    </g>
  </g>
</svg>