<svg xmlns="http://www.w3.org/2000/svg" viewBox="0 0 266.62 264.07">
  <defs>
    <style>
      .cls-1 {
        fill: #04bfad;
      }

      .cls-1,
      .cls-2,
      .cls-3,
      .cls-4 {
        stroke: #000;
        stroke-miterlimit: 10;
      }

      .cls-2 {
        fill: #7f3d87;
      }

      .cls-3 {
        fill: #fff;
      }

      .cls-4 {
        fill: #ea95a8;
      }
    </style>
  </defs>
  <g id="Camada_2" data-name="Camada 2">
    <g id="Camada_2-2" data-name="Camada 2">
      <path class="cls-1"
        d="M10,33.39c0,1.37,1.63,2.71,3.4,2.94h.48c1.9,0,3.92-1.41,3.92-2.83,0-2.45-4-2.83-7.28-3.8C5.4,28.18,1.08,24.46,1.08,19.26,1.08,13,6.52,7.85,13.94,7.85c6.77,0,11.9,4.51,12.72,10.38l.1.72-9.5,1.91c0-2.27-.93-3.92-3.27-3.92a3.12,3.12,0,0,0-3.3,2.83c0,2.44,3.78,3.23,6.9,4,5.28,1.33,9.76,4.92,9.76,10.24,0,6.35-6,11.42-13.38,11.42C7.2,45.45,1.58,41,.68,35.08l-.11-.72L10,32.43Z" />
      <path class="cls-1" d="M30.57,8H56.08v9H40v5H52.37v9H40v5h16v9H30.57Z" />
      <path class="cls-1"
        d="M75,30.15v-7l-.16-15,9.45,0,.14,15.07v7.29a14.12,14.12,0,0,1-4.62,10.64,18.19,18.19,0,0,1-12.08,4.36h-.29a15.8,15.8,0,0,1-9.19-2.71l-.61-.42,4.61-8L63,35a7,7,0,0,0,4.51,1.46h.18C71.49,36.45,75,33.74,75,30.15Z" />
      <path class="cls-1"
        d="M84.34,45.1,102.18,8.15h2.13l17.87,37h-9.82l-2.74-5.62H96.87L94.13,45.1Zm16.53-13h4.76l-2.37-5Z" />
      <path class="cls-1"
        d="M163.21,30V8.11h9.09V30.35A14.32,14.32,0,0,1,167.68,41a18.4,18.4,0,0,1-23.9,0,14.36,14.36,0,0,1-4.62-10.69V8.11h9.09V30a5.61,5.61,0,0,0,2.2,4.43,7.91,7.91,0,0,0,5.28,1.84C159.48,36.31,163.21,33.65,163.21,30Z" />
      <path class="cls-1" d="M178.75,8l17.88,23.51L214.48,8h1.86V45.1h-9V31.45L196.63,45.07l-10.7-13.63V45.1h-9V8Z" />
      <path class="cls-1" d="M3.5,50.71H43.67v14.2H18.41v8H37.82v14.2H18.41v22.11H3.5Z" />
      <path class="cls-1"
        d="M48.77,109.1l0-58.24H70a35.28,35.28,0,0,1,10.14,1.47,20.74,20.74,0,0,1,7.5,4.56c3.68,3.52,6,7,6,13.53v1.46a18.81,18.81,0,0,1-3.92,11.33,14,14,0,0,1-6.13,5l14,20.89H80.31L63,86.34V109.1Zm30.1-37.47a6.12,6.12,0,0,0-2.28-4.71C75.08,65.68,71.84,65,69.18,65H63V78.53h5.28v0h3.09C75.24,78.57,78.87,75.64,78.87,71.63Z" />
      <path class="cls-1"
        d="M99.07,109.1l28.09-58.17h3.36l28.13,58.17H143.19l-4.31-8.85H118.8l-4.31,8.85Zm26-20.45h7.51l-3.73-7.88Z" />
      <path class="cls-1" d="M166.79,50.71l34.1,30.65V50.71h14.7V109.1h-3.2l-34-30.58V109.1H163.71V50.71Z" />
      <path class="cls-1"
        d="M41.91,112.31a41.6,41.6,0,0,1,28.93,11c7.72,7.33,11.56,16.18,11.56,26.33a34.75,34.75,0,0,1-7.5,22,46.67,46.67,0,0,0,8.37,1.16l1.62.1-1.44,16.83-1.56-.1c-9.81-.64-17.3-2.56-23.52-6.1a41.94,41.94,0,0,1-16.46,3.11c-11.3,0-21-3.64-28.83-10.81A35,35,0,0,1,1.71,149.54a35.37,35.37,0,0,1,11.37-26.28C21,116,30.67,112.31,41.91,112.31ZM34,151c10.88.79,16.69,4.83,23.72,11,.47.41,1,1,1.64,1.54A18.93,18.93,0,0,0,63.76,151a19.23,19.23,0,0,0-6.4-14.58,21.7,21.7,0,0,0-15.45-6.08,21.19,21.19,0,0,0-15.38,6.07,19.84,19.84,0,0,0,0,29.22,21.2,21.2,0,0,0,14.63,6.07,14.27,14.27,0,0,0-8.31-3.13l-1.66-.11,1.11-17.63Z" />
      <path class="cls-1"
        d="M138.84,156.29V112.9h18v44a28.4,28.4,0,0,1-9.14,21.15c-6.1,5.78-14.06,8.71-23.6,8.71s-17.63-2.93-23.69-8.71a28.36,28.36,0,0,1-9.14-21.15v-44h18v43.39a11.14,11.14,0,0,0,4.36,8.78A15.62,15.62,0,0,0,124,168.71C131.45,168.71,138.84,163.44,138.84,156.29Z" />
      <path class="cls-1" d="M165.9,112.72h50.5v17.84H184.65v10H209V158.4H184.65v10H216.4v17.8H165.9Z" />
      <path class="cls-1"
        d="M1.58,263.1l33-68.39h4L71.63,263.1H53.46l-5.08-10.41H24.79L19.71,263.1Zm30.6-24H41l-4.38-9.27Z" />
      <path class="cls-1"
        d="M98.78,194.67v0h1.48c12.1,0,22.2,4.1,29.05,10.07,6.43,6.19,9.61,14.34,9.61,24.23s-3.19,18-9.61,24.16c-8.48,6.67-19.31,10-32,10H77.58V194.67Zm1.44,16.56H95.81L96,246.41h1.85c13.57,0,22.12-6,23.67-17.59C121.49,217.42,112.2,211.23,100.22,211.23Z" />
      <path class="cls-1"
        d="M178.77,194.07c10.48,0,18.31,3.44,25.8,10.24a33.59,33.59,0,0,1,0,49.15c-7.47,6.71-15.29,10.11-25.81,10.11s-18.36-3.42-25.8-10.11a33.7,33.7,0,0,1,0-49.15C160.45,197.51,168.28,194.07,178.77,194.07Zm0,16.87c-5.76,0-9.23,1.72-13.2,5.23s-6,7.74-6,12.65a16.11,16.11,0,0,0,6,12.64c4,3.49,7.48,5.2,13.21,5.2s9.09-1.71,13.16-5.21a16,16,0,0,0,6-12.63c0-4.94-2-9.08-6.06-12.64S184.42,210.94,178.77,210.94Z" />
      <path class="cls-2"
        d="M14,30.39c0,1.37,1.63,2.71,3.4,2.94h.48c1.9,0,3.92-1.41,3.92-2.83,0-2.45-4-2.83-7.28-3.8C9.4,25.18,5.08,21.46,5.08,16.26,5.08,10,10.52,4.85,17.94,4.85c6.77,0,11.91,4.51,12.72,10.38l.1.72-9.5,1.91c0-2.27-.93-3.92-3.27-3.92a3.12,3.12,0,0,0-3.3,2.83c0,2.44,3.78,3.23,6.9,4,5.28,1.33,9.76,4.92,9.76,10.24,0,6.35-6,11.42-13.38,11.42C11.2,42.45,5.58,38,4.68,32.08l-.11-.72L14,29.43Z" />
      <path class="cls-2" d="M34.57,5H60.09v9H44v5H56.37v9H44v5H60.09v9H34.57Z" />
      <path class="cls-2"
        d="M79,27.15v-7l-.16-15,9.45,0,.14,15.07v7.29a14.12,14.12,0,0,1-4.62,10.64,18.19,18.19,0,0,1-12.08,4.36h-.29a15.8,15.8,0,0,1-9.19-2.71l-.61-.42,4.62-8L67,32a7,7,0,0,0,4.51,1.46h.18C75.49,33.45,79,30.74,79,27.15Z" />
      <path class="cls-2"
        d="M88.34,42.1,106.18,5.15h2.13l17.87,37h-9.82l-2.74-5.62H100.87L98.13,42.1Zm16.53-13h4.76l-2.36-5Z" />
      <path class="cls-2"
        d="M167.21,27V5.11h9.09V27.35A14.32,14.32,0,0,1,171.68,38a18.4,18.4,0,0,1-23.9,0,14.36,14.36,0,0,1-4.62-10.69V5.11h9.09V27a5.61,5.61,0,0,0,2.2,4.43,7.91,7.91,0,0,0,5.28,1.84C163.48,33.31,167.21,30.65,167.21,27Z" />
      <path class="cls-2" d="M182.75,5l17.88,23.51L218.48,5h1.86V42.1h-9V28.45L200.63,42.07l-10.7-13.63V42.1h-9V5Z" />
      <path class="cls-2" d="M7.5,47.71H47.68v14.2H22.41v8H41.82v14.2H22.41v22.11H7.5Z" />
      <path class="cls-2"
        d="M52.77,106.1l0-58.24H74a35.28,35.28,0,0,1,10.14,1.47,20.74,20.74,0,0,1,7.5,4.56c3.68,3.52,6,7,6,13.53v1.46a18.81,18.81,0,0,1-3.92,11.33,14,14,0,0,1-6.13,5l14,20.89H84.31L67,83.34V106.1Zm30.1-37.47a6.12,6.12,0,0,0-2.28-4.71C79.08,62.68,75.84,62,73.18,62H67V75.53h5.28v0h3.09C79.24,75.57,82.87,72.64,82.87,68.63Z" />
      <path class="cls-2"
        d="M103.07,106.1l28.09-58.17h3.36l28.13,58.17H147.19l-4.31-8.85H122.81l-4.32,8.85Zm26-20.45h7.5l-3.73-7.88Z" />
      <path class="cls-2" d="M170.79,47.71l34.1,30.65V47.71h14.7V106.1h-3.2l-34-30.58V106.1H167.71V47.71Z" />
      <path class="cls-2"
        d="M45.91,109.31a41.6,41.6,0,0,1,28.93,11c7.73,7.33,11.56,16.18,11.56,26.33a34.75,34.75,0,0,1-7.5,22,46.67,46.67,0,0,0,8.37,1.16l1.62.1-1.44,16.83-1.56-.1c-9.81-.64-17.3-2.56-23.52-6.1a41.94,41.94,0,0,1-16.46,3.11c-11.3,0-21-3.64-28.83-10.81A35,35,0,0,1,5.71,146.54a35.37,35.37,0,0,1,11.37-26.28C25,113,34.67,109.31,45.91,109.31ZM38,148c10.88.79,16.69,4.83,23.72,11,.47.41,1,1,1.64,1.54A18.93,18.93,0,0,0,67.76,148a19.23,19.23,0,0,0-6.4-14.58,21.7,21.7,0,0,0-15.45-6.08,21.19,21.19,0,0,0-15.38,6.07,19.84,19.84,0,0,0,0,29.22,21.2,21.2,0,0,0,14.63,6.07,14.27,14.27,0,0,0-8.31-3.13l-1.66-.11,1.11-17.63Z" />
      <path class="cls-2"
        d="M142.84,153.29V109.9h18v44a28.4,28.4,0,0,1-9.14,21.15c-6.1,5.78-14.06,8.71-23.6,8.71s-17.63-2.93-23.69-8.71a28.36,28.36,0,0,1-9.14-21.15v-44h18v43.39a11.14,11.14,0,0,0,4.36,8.78A15.62,15.62,0,0,0,128,165.71C135.45,165.71,142.84,160.44,142.84,153.29Z" />
      <path class="cls-2" d="M169.9,109.72h50.5v17.84H188.65v10H213V155.4H188.65v10H220.4v17.8H169.9Z" />
      <path class="cls-2"
        d="M5.58,260.1l33-68.39h4L75.63,260.1H57.46l-5.08-10.41H28.79L23.71,260.1Zm30.6-24H45l-4.38-9.27Z" />
      <path class="cls-2"
        d="M102.78,191.67v0h1.48c12.1,0,22.2,4.1,29.05,10.07,6.43,6.19,9.61,14.34,9.61,24.23s-3.19,18-9.61,24.16c-8.48,6.67-19.31,10-32,10H81.58V191.67Zm1.44,16.56H99.81l.16,35.18h1.85c13.57,0,22.12-6,23.67-17.59C125.49,214.42,116.2,208.23,104.22,208.23Z" />
      <path class="cls-2"
        d="M182.77,191.07c10.48,0,18.31,3.44,25.8,10.24a33.59,33.59,0,0,1,0,49.15c-7.47,6.71-15.29,10.11-25.81,10.11s-18.36-3.42-25.8-10.11a33.7,33.7,0,0,1,0-49.15C164.45,194.51,172.28,191.07,182.77,191.07Zm0,16.87c-5.76,0-9.23,1.72-13.2,5.23s-6,7.74-6,12.65a16.11,16.11,0,0,0,6,12.64c4,3.49,7.48,5.2,13.21,5.2s9.09-1.71,13.16-5.21a16,16,0,0,0,6-12.63c0-4.94-2-9.08-6.06-12.64S188.42,207.94,182.77,207.94Z" />
      <path class="cls-3"
        d="M18.45,26c0,1.37,1.64,2.71,3.41,2.94h.48c1.89,0,3.92-1.41,3.92-2.83,0-2.45-4-2.83-7.28-3.8-5.14-1.52-9.46-5.24-9.46-10.44C9.52,5.6,15,.5,22.38.5,29.14.5,34.28,5,35.1,10.88l.1.72-9.5,1.91c0-2.27-.94-3.92-3.27-3.92a3.12,3.12,0,0,0-3.3,2.83c0,2.44,3.78,3.23,6.9,4,5.28,1.33,9.76,4.91,9.76,10.24,0,6.35-6,11.42-13.39,11.42C15.64,38.1,10,33.65,9.11,27.73L9,27l9.45-1.92Z" />
      <path class="cls-3" d="M39,.67H64.52v9h-16v5.05H60.8v9H48.48V28.8h16v9H39Z" />
      <path class="cls-3"
        d="M83.48,22.8v-7l-.17-15,9.46,0,.14,15.07v7.28a14.13,14.13,0,0,1-4.62,10.65,18.19,18.19,0,0,1-12.08,4.36h-.29a15.8,15.8,0,0,1-9.19-2.71L66.12,35l4.61-8,.74.62A7,7,0,0,0,76,29.1h.18C79.93,29.1,83.48,26.39,83.48,22.8Z" />
      <path class="cls-3"
        d="M92.77,37.75,110.61.8h2.14l17.87,37H120.8l-2.74-5.62H105.31l-2.74,5.62Zm16.53-13h4.77l-2.37-5Z" />
      <path class="cls-3"
        d="M171.65,22.69V.76h9.09V23a14.36,14.36,0,0,1-4.62,10.69,18.4,18.4,0,0,1-23.9,0A14.32,14.32,0,0,1,147.6,23V.76h9.09V22.69a5.61,5.61,0,0,0,2.2,4.43A7.89,7.89,0,0,0,164.17,29C167.92,29,171.65,26.3,171.65,22.69Z" />
      <path class="cls-3"
        d="M187.18.67l17.88,23.51L222.92.67h1.86V37.75h-9.05V24.1L205.06,37.72,194.37,24.09V37.75h-9V.67Z" />
      <path class="cls-3" d="M11.93,43.36H52.11v14.2H26.85v8H46.26v14.2H26.85v22.11H11.93Z" />
      <path class="cls-3"
        d="M57.21,101.75l0-58.25h21.3A35.17,35.17,0,0,1,88.6,45a20.87,20.87,0,0,1,7.51,4.56c3.68,3.52,6,7,6,13.53v1.45A18.81,18.81,0,0,1,98.2,75.86a14,14,0,0,1-6.14,5l14,20.89H88.75L71.44,79v22.76Zm30.1-37.47A6.15,6.15,0,0,0,85,59.57c-1.51-1.24-4.75-1.94-7.41-1.94H71.4V71.18h5.29v0h3.09C83.67,71.22,87.31,68.29,87.31,64.28Z" />
      <path class="cls-3"
        d="M107.5,101.75l28.1-58.17H139l28.13,58.17H151.63l-4.32-8.85H127.24l-4.32,8.85Zm26-20.45H141l-3.72-7.88Z" />
      <path class="cls-3" d="M175.23,43.36,209.33,74V43.36H224v58.39h-3.2l-34-30.58v30.58H172.15V43.36Z" />
      <path class="cls-3"
        d="M50.35,105a41.6,41.6,0,0,1,28.93,11c7.72,7.33,11.56,16.18,11.56,26.33a34.75,34.75,0,0,1-7.5,22,46.53,46.53,0,0,0,8.37,1.16l1.62.1L91.89,182.3l-1.56-.1c-9.82-.64-17.31-2.56-23.52-6.1a42,42,0,0,1-16.46,3.11c-11.3,0-21-3.64-28.83-10.82a34.92,34.92,0,0,1-11.38-26.2,35.4,35.4,0,0,1,11.37-26.28C29.41,108.64,39.11,105,50.35,105Zm-7.92,38.65c10.88.79,16.69,4.83,23.72,11,.47.41,1,1,1.63,1.54a18.91,18.91,0,0,0,4.42-12.49,19.27,19.27,0,0,0-6.4-14.59A21.73,21.73,0,0,0,50.35,123,21.23,21.23,0,0,0,35,129.06a19.85,19.85,0,0,0,0,29.22,21.12,21.12,0,0,0,14.62,6.06,14.27,14.27,0,0,0-8.3-3.12l-1.66-.11,1.11-17.63Z" />
      <path class="cls-3"
        d="M147.27,148.94V105.55h18v44a28.4,28.4,0,0,1-9.14,21.15c-6.1,5.78-14.07,8.71-23.6,8.71s-17.63-2.93-23.7-8.72a28.36,28.36,0,0,1-9.14-21.14v-44h18v43.39a11.11,11.11,0,0,0,4.36,8.78,15.6,15.6,0,0,0,10.44,3.64C139.89,161.36,147.27,156.09,147.27,148.94Z" />
      <path class="cls-3" d="M174.34,105.37h50.5v17.84H193.09v10h24.39v17.85H193.09v10h31.75v17.8h-50.5Z" />
      <path class="cls-3"
        d="M10,255.75l33-68.39h4l33.07,68.39H61.9l-5.08-10.41H33.22l-5.07,10.41Zm30.6-24h8.82l-4.38-9.27Z" />
      <path class="cls-3"
        d="M107.21,187.32v0h1.49c12.09,0,22.2,4.1,29.05,10.07,6.42,6.19,9.61,14.34,9.61,24.23s-3.19,18-9.62,24.16c-8.47,6.67-19.3,10-32,10H86V187.32Zm1.45,16.56h-4.41l.16,35.18h1.85c13.57,0,22.11-6,23.67-17.59C129.93,210.07,120.63,203.88,108.66,203.88Z" />
      <path class="cls-3"
        d="M187.2,186.72c10.49,0,18.32,3.44,25.81,10.24a33.58,33.58,0,0,1,0,49.15c-7.46,6.71-15.28,10.11-25.8,10.11s-18.36-3.42-25.8-10.11a33.7,33.7,0,0,1,0-49.15C168.89,190.16,176.71,186.72,187.2,186.72Zm0,16.86c-5.75,0-9.22,1.73-13.19,5.24s-6,7.74-6,12.65a16.11,16.11,0,0,0,6,12.64c4,3.49,7.48,5.2,13.2,5.2s9.1-1.71,13.17-5.21a16,16,0,0,0,6-12.63c0-4.94-2-9.09-6.06-12.64S192.86,203.58,187.2,203.58Z" />
      <path class="cls-4"
        d="M215,213.79c1.18-14.2,11.07-24.88,21.8-24s18.67,13.55,17.49,27.7-11.08,24.77-21.79,23.87S213.8,228.06,215,213.79Zm51.07-157.5L250.93,184.58l-27.42-2.28.22-3.66c2.62-43.25,3.68-78.83,5.8-121.43l.2-4Z" />
    </g>
  </g>
</svg>