<svg xmlns="http://www.w3.org/2000/svg" viewBox="0 0 380.38 45.03">
  <defs>
    <style>
      .cls-1 {
        fill: #ff4a86;
      }

      .cls-1,
      .cls-2,
      .cls-3 {
        stroke: #000;
        stroke-miterlimit: 10;
      }

      .cls-2 {
        fill: #04bfad;
      }

      .cls-3 {
        fill: #fff;
      }
    </style>
  </defs>
  <g id="Camada_2" data-name="Camada 2">
    <g id="Camada_2-2" data-name="Camada 2">
      <path class="cls-1" d="M2.5,6.25,24.62,26.14V6.25h9.54V44.13H32.08L10,24.29V44.13H.5V6.25Z" />
      <path class="cls-1"
        d="M57.55,6a19.85,19.85,0,0,1,14.23,5.65,18.18,18.18,0,0,1,5.9,13.57,18.07,18.07,0,0,1-5.9,13.55,20,20,0,0,1-14.24,5.58,20,20,0,0,1-14.23-5.58,18.16,18.16,0,0,1-5.87-13.55,18.25,18.25,0,0,1,5.87-13.57A19.86,19.86,0,0,1,57.55,6Zm0,9.31a9.83,9.83,0,0,0-7.28,2.89,9,9,0,0,0,0,14,10.64,10.64,0,0,0,14.55,0,8.81,8.81,0,0,0,3.34-7,8.91,8.91,0,0,0-3.34-7A10,10,0,0,0,57.55,15.35Z" />
      <path class="cls-1"
        d="M89,32.17c0,1.4,1.66,2.76,3.47,3h.5c1.93,0,4-1.44,4-2.89,0-2.51-4.09-2.89-7.44-3.88-5.25-1.55-9.66-5.35-9.66-10.66C79.84,11.3,85.4,6.08,93,6.08c6.9,0,12.15,4.61,13,10.6l.1.74-9.71,1.95c0-2.32-1-4-3.33-4a3.19,3.19,0,0,0-3.38,2.89c0,2.49,3.86,3.3,7.06,4.11,5.38,1.35,10,5,10,10.45,0,6.49-6.14,11.66-13.67,11.66-6.91,0-12.65-4.54-13.57-10.58l-.11-.75,9.65-2Z" />
      <path class="cls-1"
        d="M118,32.17c0,1.4,1.67,2.76,3.47,3h.5c1.93,0,4-1.44,4-2.89,0-2.51-4.09-2.89-7.44-3.88-5.25-1.55-9.65-5.35-9.65-10.66,0-6.44,5.55-11.66,13.13-11.66,6.91,0,12.15,4.61,13,10.6l.1.74-9.71,1.95c0-2.32-.95-4-3.33-4a3.19,3.19,0,0,0-3.37,2.89c0,2.49,3.86,3.3,7,4.11,5.39,1.35,10,5,10,10.45,0,6.49-6.14,11.66-13.67,11.66-6.91,0-12.65-4.54-13.57-10.58l-.11-.75,9.65-2Z" />
      <path class="cls-1"
        d="M136.13,44.13,154.35,6.39h2.19l18.24,37.74h-10L162,38.39h-13l-2.81,5.74ZM153,30.86h4.86l-2.41-5.11Z" />
      <path class="cls-1"
        d="M184.66,32.17c0,1.4,1.67,2.76,3.48,3h.49c1.93,0,4-1.44,4-2.89,0-2.51-4.09-2.89-7.44-3.88-5.24-1.55-9.65-5.35-9.65-10.66,0-6.44,5.56-11.66,13.13-11.66,6.91,0,12.16,4.61,13,10.6l.1.74-9.7,1.95c0-2.32-.95-4-3.34-4a3.19,3.19,0,0,0-3.37,2.89c0,2.49,3.86,3.3,7.05,4.11,5.39,1.35,10,5,10,10.45,0,6.49-6.15,11.66-13.67,11.66-6.92,0-12.65-4.54-13.58-10.58l-.11-.75,9.65-2Z" />
      <path class="cls-1" d="M219.71,6.35h9.23V34.94h16.83v9.19H219.71Z" />
      <path class="cls-1"
        d="M265.41,6a19.86,19.86,0,0,1,14.24,5.65,18.18,18.18,0,0,1,5.9,13.57,18.07,18.07,0,0,1-5.9,13.55,20.95,20.95,0,0,1-28.47,0,18.13,18.13,0,0,1-5.88-13.55,18.25,18.25,0,0,1,5.87-13.57A19.89,19.89,0,0,1,265.41,6Zm0,9.31a9.85,9.85,0,0,0-7.28,2.89,9,9,0,0,0,0,14,10.64,10.64,0,0,0,14.55,0,9,9,0,0,0,0-13.94A10,10,0,0,0,265.41,15.35Z" />
      <path class="cls-1"
        d="M298.15,28.86V21.68L298,6.34l9.65,0,.15,15.39V29.2a14.47,14.47,0,0,1-4.72,10.88,18.69,18.69,0,0,1-12.34,4.45h-.29a16.12,16.12,0,0,1-9.39-2.78l-.62-.43,4.71-8.15.75.63a7.1,7.1,0,0,0,4.6,1.49h.19C294.53,35.29,298.15,32.53,298.15,28.86Z" />
      <path class="cls-1"
        d="M307.65,44.13,325.87,6.39h2.18L346.3,44.13h-10l-2.8-5.74h-13l-2.8,5.74Zm16.88-13.27h4.87L327,25.75Z" />
      <path class="cls-1"
        d="M356.18,32.17c0,1.4,1.67,2.76,3.47,3h.5c1.93,0,4-1.44,4-2.89,0-2.51-4.09-2.89-7.44-3.88-5.25-1.55-9.66-5.35-9.66-10.66,0-6.44,5.56-11.66,13.14-11.66,6.9,0,12.15,4.61,13,10.6l.1.74-9.71,1.95c0-2.32-.95-4-3.33-4a3.19,3.19,0,0,0-3.38,2.89c0,2.49,3.86,3.3,7.06,4.11,5.38,1.35,10,5,10,10.45,0,6.49-6.14,11.66-13.67,11.66-6.91,0-12.65-4.54-13.57-10.58l-.11-.75,9.65-2Z" />
      <path class="cls-2" d="M5.61,3.1,27.73,23V3.1h9.53V41H35.19L13.12,21.14V41H3.61V3.1Z" />
      <path class="cls-2"
        d="M60.65,2.89A19.86,19.86,0,0,1,74.89,8.54a18.14,18.14,0,0,1,5.9,13.57,18.07,18.07,0,0,1-5.9,13.55,20,20,0,0,1-14.24,5.57,19.93,19.93,0,0,1-14.23-5.58,18.13,18.13,0,0,1-5.88-13.54A18.29,18.29,0,0,1,46.41,8.54,19.89,19.89,0,0,1,60.65,2.89Zm0,9.3a9.85,9.85,0,0,0-7.28,2.89,9,9,0,0,0-3.32,7,8.87,8.87,0,0,0,3.32,7,9.92,9.92,0,0,0,7.28,2.87A10,10,0,0,0,67.92,29a9,9,0,0,0,0-13.94A9.92,9.92,0,0,0,60.65,12.19Z" />
      <path class="cls-2"
        d="M92.07,29c0,1.39,1.67,2.76,3.48,3H96c1.94,0,4-1.43,4-2.89,0-2.5-4.09-2.88-7.43-3.88C87.36,23.69,83,19.9,83,14.59,83,8.14,88.51,2.93,96.08,2.93c6.91,0,12.16,4.61,13,10.6l.1.74-9.7,1.95c0-2.32-1-4-3.34-4a3.2,3.2,0,0,0-3.37,2.89c0,2.5,3.86,3.3,7,4.11,5.39,1.36,10,5,10,10.45,0,6.5-6.15,11.67-13.67,11.67-6.91,0-12.65-4.54-13.57-10.59L82.42,30l9.65-2Z" />
      <path class="cls-2"
        d="M121.07,29c0,1.39,1.66,2.76,3.47,3h.5c1.93,0,4-1.43,4-2.89,0-2.5-4.08-2.88-7.43-3.88-5.25-1.55-9.66-5.34-9.66-10.65,0-6.45,5.56-11.66,13.13-11.66,6.91,0,12.16,4.61,13,10.6l.11.74-9.71,1.95c0-2.32-1-4-3.33-4a3.2,3.2,0,0,0-3.38,2.89c0,2.5,3.86,3.3,7.05,4.11,5.39,1.36,10,5,10,10.45,0,6.5-6.14,11.67-13.67,11.67-6.91,0-12.65-4.54-13.57-10.59l-.12-.74,9.66-2Z" />
      <path class="cls-2"
        d="M139.24,41,157.46,3.24h2.18L177.89,41h-10l-2.8-5.75H152L149.24,41Zm16.88-13.27H161l-2.42-5.11Z" />
      <path class="cls-2"
        d="M187.77,29c0,1.39,1.67,2.76,3.47,3h.5c1.93,0,4-1.43,4-2.89,0-2.5-4.09-2.88-7.44-3.88-5.25-1.55-9.65-5.34-9.65-10.65,0-6.45,5.55-11.66,13.13-11.66,6.91,0,12.15,4.61,13,10.6l.1.74-9.71,1.95c0-2.32-.95-4-3.33-4a3.2,3.2,0,0,0-3.38,2.89c0,2.5,3.86,3.3,7.06,4.11,5.39,1.36,10,5,10,10.45,0,6.5-6.14,11.67-13.67,11.67-6.91,0-12.65-4.54-13.57-10.59l-.11-.74,9.65-2Z" />
      <path class="cls-2" d="M222.82,3.19h9.23v28.6h16.83V41H222.82Z" />
      <path class="cls-2"
        d="M268.52,2.89a19.88,19.88,0,0,1,14.24,5.65,18.17,18.17,0,0,1,5.89,13.57,18.07,18.07,0,0,1-5.9,13.55,21,21,0,0,1-28.47,0,18.12,18.12,0,0,1-5.87-13.54,18.25,18.25,0,0,1,5.87-13.57A19.88,19.88,0,0,1,268.52,2.89Zm0,9.3a9.85,9.85,0,0,0-7.28,2.89,9,9,0,0,0-3.32,7,8.89,8.89,0,0,0,3.31,7,10.66,10.66,0,0,0,14.55,0,8.94,8.94,0,0,0,0-13.94A9.92,9.92,0,0,0,268.52,12.19Z" />
      <path class="cls-2"
        d="M301.26,25.71V18.52l-.17-15.33,9.66,0,.15,15.39v7.44a14.42,14.42,0,0,1-4.73,10.87,18.56,18.56,0,0,1-12.33,4.45h-.3a16.06,16.06,0,0,1-9.39-2.77l-.62-.43L288.24,30l.75.64a7.12,7.12,0,0,0,4.61,1.49h.18C297.64,32.14,301.26,29.38,301.26,25.71Z" />
      <path class="cls-2"
        d="M310.76,41,329,3.24h2.18L349.4,41h-10l-2.8-5.75h-13L320.76,41Zm16.88-13.27h4.86l-2.41-5.11Z" />
      <path class="cls-2"
        d="M359.28,29c0,1.39,1.67,2.76,3.48,3h.5c1.93,0,4-1.43,4-2.89,0-2.5-4.09-2.88-7.43-3.88-5.25-1.55-9.66-5.34-9.66-10.65,0-6.45,5.56-11.66,13.13-11.66,6.91,0,12.16,4.61,13,10.6l.1.74-9.7,1.95c0-2.32-.95-4-3.34-4A3.2,3.2,0,0,0,360,15.1c0,2.5,3.86,3.3,7,4.11,5.39,1.36,10,5,10,10.45,0,6.5-6.15,11.67-13.67,11.67-6.91,0-12.65-4.54-13.57-10.59l-.12-.74,9.65-2Z" />
      <path class="cls-3" d="M8.5.71,30.62,20.59V.71h9.54V38.59H38.08L16,18.75V38.59H6.5V.71Z" />
      <path class="cls-3"
        d="M63.55.5A19.85,19.85,0,0,1,77.78,6.15a18.16,18.16,0,0,1,5.9,13.57,18.07,18.07,0,0,1-5.9,13.55,20,20,0,0,1-14.24,5.57,20,20,0,0,1-14.23-5.57,18.16,18.16,0,0,1-5.87-13.55A18.25,18.25,0,0,1,49.31,6.15,19.86,19.86,0,0,1,63.55.5Zm0,9.3a9.8,9.8,0,0,0-7.28,2.9,9,9,0,0,0,0,13.94,10.63,10.63,0,0,0,14.55,0,8.94,8.94,0,0,0,0-13.94A9.92,9.92,0,0,0,63.55,9.8Z" />
      <path class="cls-3"
        d="M95,26.63c0,1.39,1.66,2.76,3.47,3h.5c1.93,0,4-1.44,4-2.9,0-2.5-4.09-2.88-7.44-3.87-5.25-1.56-9.66-5.35-9.66-10.66C85.84,5.75,91.4.54,99,.54c6.9,0,12.15,4.61,13,10.6l.1.74-9.71,1.95c0-2.32-1-4-3.33-4a3.19,3.19,0,0,0-3.38,2.89c0,2.49,3.86,3.29,7.06,4.1,5.38,1.36,10,5,10,10.45,0,6.5-6.14,11.67-13.67,11.67-6.91,0-12.65-4.54-13.57-10.59l-.11-.74,9.65-2Z" />
      <path class="cls-3"
        d="M124,26.63c0,1.39,1.67,2.76,3.47,3h.5c1.93,0,4-1.44,4-2.9,0-2.5-4.09-2.88-7.44-3.87-5.25-1.56-9.65-5.35-9.65-10.66C114.84,5.75,120.39.54,128,.54c6.91,0,12.15,4.61,13,10.6l.1.74-9.71,1.95c0-2.32-.95-4-3.33-4a3.19,3.19,0,0,0-3.37,2.89c0,2.49,3.86,3.29,7,4.1,5.39,1.36,10,5,10,10.45,0,6.5-6.14,11.67-13.67,11.67-6.91,0-12.65-4.54-13.57-10.59l-.11-.74,9.65-2Z" />
      <path class="cls-3"
        d="M142.13,38.59,160.35.85h2.19l18.24,37.74h-10L168,32.84h-13l-2.81,5.75ZM159,25.32h4.86l-2.41-5.11Z" />
      <path class="cls-3"
        d="M190.66,26.63c0,1.39,1.67,2.76,3.48,3h.49c1.93,0,4-1.44,4-2.9,0-2.5-4.09-2.88-7.44-3.87-5.24-1.56-9.65-5.35-9.65-10.66,0-6.45,5.56-11.66,13.13-11.66,6.91,0,12.16,4.61,13,10.6l.1.74-9.7,1.95c0-2.32-.95-4-3.34-4a3.19,3.19,0,0,0-3.37,2.89c0,2.49,3.86,3.29,7.05,4.1,5.39,1.36,10,5,10,10.45,0,6.5-6.15,11.67-13.67,11.67-6.92,0-12.65-4.54-13.58-10.59l-.11-.74,9.65-2Z" />
      <path class="cls-3" d="M225.71.8h9.23V29.4h16.83v9.19H225.71Z" />
      <path class="cls-3"
        d="M271.41.5a19.86,19.86,0,0,1,14.24,5.65,18.16,18.16,0,0,1,5.9,13.57,18.07,18.07,0,0,1-5.9,13.55,21,21,0,0,1-28.47,0,18.13,18.13,0,0,1-5.88-13.55,18.25,18.25,0,0,1,5.87-13.57A19.89,19.89,0,0,1,271.41.5Zm0,9.3a9.82,9.82,0,0,0-7.28,2.9,9,9,0,0,0,0,13.94,9.93,9.93,0,0,0,7.28,2.88,10.05,10.05,0,0,0,7.27-2.88,9,9,0,0,0,0-13.94A9.92,9.92,0,0,0,271.41,9.8Z" />
      <path class="cls-3"
        d="M304.15,23.32V16.13L304,.8l9.65,0,.15,15.39v7.44a14.45,14.45,0,0,1-4.72,10.87A18.58,18.58,0,0,1,296.73,39h-.29a16,16,0,0,1-9.39-2.77l-.62-.43,4.71-8.16.75.64a7.1,7.1,0,0,0,4.6,1.49h.19C300.53,29.75,304.15,27,304.15,23.32Z" />
      <path class="cls-3"
        d="M313.65,38.59,331.87.85h2.18L352.3,38.59h-10l-2.8-5.75h-13l-2.8,5.75Zm16.88-13.27h4.87L333,20.21Z" />
      <path class="cls-3"
        d="M362.18,26.63c0,1.39,1.67,2.76,3.47,3h.5c1.93,0,4-1.44,4-2.9,0-2.5-4.09-2.88-7.44-3.87-5.25-1.56-9.66-5.35-9.66-10.66,0-6.45,5.56-11.66,13.14-11.66,6.9,0,12.15,4.61,13,10.6l.1.74-9.71,1.95c0-2.32-.95-4-3.33-4a3.19,3.19,0,0,0-3.38,2.89c0,2.49,3.86,3.29,7.06,4.1,5.38,1.36,10,5,10,10.45,0,6.5-6.14,11.67-13.67,11.67-6.91,0-12.65-4.54-13.57-10.59l-.11-.74,9.65-2Z" />
    </g>
  </g>
</svg>