<svg xmlns="http://www.w3.org/2000/svg" viewBox="0 0 439.03 83.06">
  <defs>
    <style>
      .cls-1 {
        fill: #7f3d87;
      }

      .cls-1,
      .cls-2,
      .cls-3,
      .cls-4 {
        stroke: #000;
        stroke-miterlimit: 10;
      }

      .cls-2 {
        fill: #ff4a86;
      }

      .cls-3 {
        fill: #fff;
      }

      .cls-4 {
        fill: #04bfad;
      }
    </style>
  </defs>
  <g id="Camada_2" data-name="Camada 2">
    <g id="Camada_2-2" data-name="Camada 2">
      <path class="cls-1"
        d="M15.58,4.5A14.87,14.87,0,0,1,26.26,8.74a13.61,13.61,0,0,1,4.42,10.17,13.52,13.52,0,0,1-4.42,10.16,15,15,0,0,1-10.68,4.19A15,15,0,0,1,4.9,29.07,13.62,13.62,0,0,1,.5,18.91,13.7,13.7,0,0,1,4.9,8.74,14.87,14.87,0,0,1,15.58,4.5Zm0,7a7.38,7.38,0,0,0-5.46,2.17,6.74,6.74,0,0,0,0,10.46,7.47,7.47,0,0,0,5.46,2.15A7.49,7.49,0,0,0,21,24.1a6.59,6.59,0,0,0,2.5-5.22A6.68,6.68,0,0,0,21,13.65,7.47,7.47,0,0,0,15.58,11.48Z" />
      <path class="cls-1" d="M45.11,4.66l13.7,18,13.67-18h1.43v28.4H67V22.61L58.81,33,50.62,22.6V33.06H43.69V4.66Z" />
      <path class="cls-1" d="M77.42,4.66H97v6.91H84.68v3.86h9.44v6.91H84.68v3.87H97V33.1H77.42Z" />
      <path class="cls-1" d="M99.43,4.73h6.93V26.17H119v6.89H99.43Z" />
      <path class="cls-1" d="M121.44,4.73h6.91V15.45h9.47V4.73h6.91V33.06h-6.91V22.32h-9.47V33.06h-6.91Z" />
      <path class="cls-1"
        d="M162.27,4.5A14.87,14.87,0,0,1,173,8.74a13.61,13.61,0,0,1,4.42,10.17A13.52,13.52,0,0,1,173,29.07a15.71,15.71,0,0,1-21.36,0,13.62,13.62,0,0,1-4.4-10.16,13.7,13.7,0,0,1,4.4-10.17A14.87,14.87,0,0,1,162.27,4.5Zm0,7a7.36,7.36,0,0,0-5.46,2.17,6.74,6.74,0,0,0,0,10.46,8,8,0,0,0,10.91,0,6.59,6.59,0,0,0,2.5-5.22,6.68,6.68,0,0,0-2.5-5.23A7.47,7.47,0,0,0,162.27,11.48Z" />
      <path class="cls-1"
        d="M179.85,33.06l0-28.33h10.36a17,17,0,0,1,4.93.72,9.94,9.94,0,0,1,3.65,2.21,8.15,8.15,0,0,1,2.93,6.59V15a9.17,9.17,0,0,1-1.91,5.52,6.81,6.81,0,0,1-3,2.43l6.81,10.16h-8.43L186.77,22V33.06Zm14.64-18.22a3,3,0,0,0-1.1-2.3,6.55,6.55,0,0,0-3.61-.94h-3v6.59h2.57v0h1.5A3.54,3.54,0,0,0,194.49,14.84Z" />
      <path class="cls-1"
        d="M217.34,4.66l13.7,18,13.67-18h1.43v28.4h-6.93V22.61L231,33,222.85,22.6V33.06h-6.93V4.66Z" />
      <path class="cls-1" d="M249.65,33.06V4.73h6.93V33.06Z" />
      <path class="cls-1" d="M260.09,4.73H267V26.17h12.62v6.89H260.09Z" />
      <path class="cls-1" d="M282.1,4.73H289V15.59l7.52-10.86h8l-9,14.36,10.49,14h-8.43L289,22.53V33.06H282.1Z" />
      <path class="cls-1"
        d="M312.7,24.1c0,1,1.25,2.07,2.6,2.24h.38c1.45,0,3-1.07,3-2.16,0-1.88-3.06-2.17-5.57-2.91-3.94-1.17-7.24-4-7.24-8,0-4.83,4.16-8.74,9.85-8.74,5.18,0,9.11,3.46,9.74,8l.07.55-7.27,1.47c0-1.75-.72-3-2.51-3a2.4,2.4,0,0,0-2.53,2.17c0,1.87,2.9,2.47,5.29,3.08,4,1,7.48,3.77,7.48,7.84,0,4.87-4.61,8.75-10.26,8.75-5.18,0-9.48-3.41-10.18-7.94l-.08-.56,7.24-1.47Z" />
      <path class="cls-1" d="M328.44,4.73h6.91V15.45h9.47V4.73h6.91V33.06h-6.91V22.32h-9.47V33.06h-6.91Z" />
      <path class="cls-1"
        d="M354.19,33.06l13.67-28.3h1.63l13.69,28.3h-7.52l-2.1-4.3h-9.77l-2.1,4.3Zm12.66-9.94h3.65l-1.81-3.84Z" />
      <path class="cls-1" d="M385.63,4.73h6.91V15.59l7.52-10.86h8l-9,14.36,10.49,14H401.1l-8.56-10.53V33.06h-6.91Z" />
      <path class="cls-1" d="M412,4.66h19.54v6.91H419.24v3.86h9.45v6.91h-9.45v3.87h12.29V33.1H412Z" />
      <path class="cls-1"
        d="M76.6,40.75v0h.61a18.18,18.18,0,0,1,12,4.16,13.34,13.34,0,0,1,4,10,13.24,13.24,0,0,1-4,10A20.9,20.9,0,0,1,76,69.06H67.82V40.75Zm.59,6.85H75.37l.07,14.56h.76c5.62,0,9.15-2.49,9.79-7.28C86,50.16,82.15,47.6,77.19,47.6Z" />
      <path class="cls-1"
        d="M109.69,40.5a14.87,14.87,0,0,1,10.68,4.24,13.9,13.9,0,0,1,0,20.33,15.69,15.69,0,0,1-21.35,0,13.92,13.92,0,0,1,0-20.33A14.85,14.85,0,0,1,109.69,40.5Zm0,7a7.38,7.38,0,0,0-5.46,2.17,6.75,6.75,0,0,0,0,10.46,8,8,0,0,0,10.91,0,6.59,6.59,0,0,0,2.5-5.22,6.68,6.68,0,0,0-2.5-5.23A7.43,7.43,0,0,0,109.69,47.48Z" />
      <path class="cls-1"
        d="M139.22,40.66l13.7,18,13.68-18H168v28.4h-6.93V58.61L152.92,69,144.73,58.6V69.06H137.8V40.66Z" />
      <path class="cls-1"
        d="M190,57.53V40.73h7v17A11,11,0,0,1,193.38,66a14.09,14.09,0,0,1-18.31,0,11,11,0,0,1-3.53-8.18v-17h7v16.8a4.28,4.28,0,0,0,1.68,3.39,6.06,6.06,0,0,0,4,1.41C187.1,62.33,190,60.29,190,57.53Z" />
      <path class="cls-1"
        d="M218.86,57.53V40.73h7v17A11,11,0,0,1,222.28,66,14.09,14.09,0,0,1,204,66a11,11,0,0,1-3.54-8.18v-17h7v16.8a4.29,4.29,0,0,0,1.69,3.39,6.06,6.06,0,0,0,4,1.41C216,62.33,218.86,60.29,218.86,57.53Z" />
      <path class="cls-1"
        d="M247.75,57.53V40.73h7v17A11,11,0,0,1,251.18,66a14.09,14.09,0,0,1-18.31,0,11,11,0,0,1-3.54-8.18v-17h7v16.8A4.29,4.29,0,0,0,238,60.92a6.05,6.05,0,0,0,4,1.41C244.89,62.33,247.75,60.29,247.75,57.53Z" />
      <path class="cls-1" d="M259.73,40.66l16.59,14.91V40.66h7.15v28.4h-1.56L265.37,54.19V69.06h-7.14V40.66Z" />
      <path class="cls-1"
        d="M295.76,40.75v0h.62a18.17,18.17,0,0,1,12,4.16,13.34,13.34,0,0,1,4,10,13.24,13.24,0,0,1-4,10c-3.5,2.76-8,4.14-13.25,4.14H287V40.75Zm.6,6.85h-1.83l.07,14.56h.76c5.62,0,9.16-2.49,9.8-7.28C305.16,50.16,301.31,47.6,296.36,47.6Z" />
      <path class="cls-1"
        d="M328.86,40.5a14.87,14.87,0,0,1,10.68,4.24,13.9,13.9,0,0,1,0,20.33,15.71,15.71,0,0,1-21.36,0,13.94,13.94,0,0,1,0-20.33A14.87,14.87,0,0,1,328.86,40.5Zm0,7a7.36,7.36,0,0,0-5.46,2.17,6.74,6.74,0,0,0,0,10.46,8,8,0,0,0,10.91,0,6.59,6.59,0,0,0,2.5-5.22,6.66,6.66,0,0,0-2.51-5.23A7.43,7.43,0,0,0,328.86,47.48Z" />
      <path class="cls-2"
        d="M19,2.5A14.87,14.87,0,0,1,29.66,6.74a13.61,13.61,0,0,1,4.42,10.17,13.52,13.52,0,0,1-4.42,10.16A15,15,0,0,1,19,31.26,15,15,0,0,1,8.31,27.07,13.59,13.59,0,0,1,3.9,16.91,13.67,13.67,0,0,1,8.31,6.74,14.85,14.85,0,0,1,19,2.5Zm0,7a7.38,7.38,0,0,0-5.46,2.17,6.74,6.74,0,0,0,0,10.46A7.49,7.49,0,0,0,19,24.26a7.47,7.47,0,0,0,5.45-2.16,6.59,6.59,0,0,0,2.5-5.22,6.68,6.68,0,0,0-2.5-5.23A7.43,7.43,0,0,0,19,9.48Z" />
      <path class="cls-2" d="M48.51,2.66l13.7,18,13.68-18h1.42v28.4H70.38V20.61L62.21,31,54,20.6V31.06H47.09V2.66Z" />
      <path class="cls-2" d="M80.82,2.66h19.55V9.57H88.08v3.86h9.44v6.91H88.08v3.87h12.29V31.1H80.82Z" />
      <path class="cls-2" d="M102.83,2.73h6.93V24.17h12.62v6.89H102.83Z" />
      <path class="cls-2" d="M124.84,2.73h6.91V13.45h9.47V2.73h6.91V31.06h-6.91V20.32h-9.47V31.06h-6.91Z" />
      <path class="cls-2"
        d="M165.67,2.5a14.87,14.87,0,0,1,10.68,4.24,13.61,13.61,0,0,1,4.42,10.17,13.52,13.52,0,0,1-4.42,10.16,15.69,15.69,0,0,1-21.35,0,13.59,13.59,0,0,1-4.41-10.16A13.7,13.7,0,0,1,155,6.74,14.89,14.89,0,0,1,165.67,2.5Zm0,7a7.38,7.38,0,0,0-5.46,2.17,6.74,6.74,0,0,0,0,10.46,8,8,0,0,0,10.91,0,6.59,6.59,0,0,0,2.5-5.22,6.68,6.68,0,0,0-2.5-5.23A7.45,7.45,0,0,0,165.67,9.48Z" />
      <path class="cls-2"
        d="M183.25,31.06l0-28.33h10.36a17.12,17.12,0,0,1,4.94.72,10.11,10.11,0,0,1,3.65,2.21,8.15,8.15,0,0,1,2.92,6.59V13a9.11,9.11,0,0,1-1.91,5.52,6.76,6.76,0,0,1-3,2.43L207,31.06H198.6L190.18,20V31.06ZM197.9,12.84a3,3,0,0,0-1.11-2.3,6.52,6.52,0,0,0-3.61-.94h-3v6.59h2.57v0h1.5A3.55,3.55,0,0,0,197.9,12.84Z" />
      <path class="cls-2"
        d="M220.75,2.66l13.69,18,13.68-18h1.42v28.4h-6.93V20.61L234.44,31,226.25,20.6V31.06h-6.93V2.66Z" />
      <path class="cls-2" d="M253.06,31.06V2.73H260V31.06Z" />
      <path class="cls-2" d="M263.5,2.73h6.92V24.17H283v6.89H263.5Z" />
      <path class="cls-2" d="M285.5,2.73h6.91V13.59l7.52-10.86h8l-9,14.36,10.48,14H301l-8.56-10.53V31.06H285.5Z" />
      <path class="cls-2"
        d="M316.1,22.1c0,1,1.25,2.07,2.61,2.24h.37c1.45,0,3-1.07,3-2.16,0-1.88-3.07-2.17-5.58-2.91-3.94-1.17-7.24-4-7.24-8,0-4.83,4.17-8.74,9.85-8.74,5.18,0,9.12,3.46,9.74,8l.08.55-7.28,1.47c0-1.75-.71-3-2.5-3a2.39,2.39,0,0,0-2.53,2.17c0,1.87,2.89,2.47,5.29,3.08,4,1,7.47,3.77,7.47,7.84,0,4.87-4.61,8.75-10.25,8.75-5.19,0-9.49-3.41-10.18-7.94l-.09-.56,7.24-1.47Z" />
      <path class="cls-2" d="M331.84,2.73h6.91V13.45h9.47V2.73h6.91V31.06h-6.91V20.32h-9.47V31.06h-6.91Z" />
      <path class="cls-2"
        d="M357.59,31.06l13.67-28.3h1.64l13.68,28.3h-7.52l-2.1-4.3H367.2l-2.11,4.3Zm12.66-9.94h3.65l-1.81-3.84Z" />
      <path class="cls-2" d="M389,2.73H396V13.59l7.52-10.86h8l-9,14.36,10.49,14H404.5L396,20.53V31.06H389Z" />
      <path class="cls-2" d="M415.39,2.66h19.55V9.57H422.65v3.86h9.44v6.91h-9.44v3.87h12.29V31.1H415.39Z" />
      <path class="cls-2"
        d="M80,38.75v0h.61a18.18,18.18,0,0,1,12,4.16,13.34,13.34,0,0,1,4,10,13.24,13.24,0,0,1-4,10,20.9,20.9,0,0,1-13.25,4.14H71.23V38.75Zm.6,6.85H78.77l.07,14.56h.76c5.62,0,9.15-2.49,9.8-7.28C89.4,48.16,85.55,45.6,80.6,45.6Z" />
      <path class="cls-2"
        d="M113.1,38.5a14.87,14.87,0,0,1,10.68,4.24,13.89,13.89,0,0,1,0,20.33,15.69,15.69,0,0,1-21.35,0,13.94,13.94,0,0,1,0-20.33A14.87,14.87,0,0,1,113.1,38.5Zm0,7a7.36,7.36,0,0,0-5.46,2.17,6.75,6.75,0,0,0,0,10.46,8,8,0,0,0,10.92,0,6.59,6.59,0,0,0,2.5-5.22,6.66,6.66,0,0,0-2.51-5.23A7.43,7.43,0,0,0,113.1,45.48Z" />
      <path class="cls-2"
        d="M142.63,38.66l13.69,18,13.68-18h1.42v28.4H164.5V56.61L156.32,67,148.13,56.6V67.06h-6.92V38.66Z" />
      <path class="cls-2"
        d="M193.36,55.53V38.73h7v17A11,11,0,0,1,196.78,64a14.07,14.07,0,0,1-18.3,0,11,11,0,0,1-3.54-8.18v-17h7v16.8a4.29,4.29,0,0,0,1.69,3.39,6,6,0,0,0,4,1.41C190.5,60.33,193.36,58.29,193.36,55.53Z" />
      <path class="cls-2"
        d="M222.26,55.53V38.73h7v17A11,11,0,0,1,225.68,64a14.07,14.07,0,0,1-18.3,0,11,11,0,0,1-3.54-8.18v-17h7v16.8a4.29,4.29,0,0,0,1.69,3.39,6,6,0,0,0,4,1.41C219.4,60.33,222.26,58.29,222.26,55.53Z" />
      <path class="cls-2"
        d="M251.16,55.53V38.73h7v17A11,11,0,0,1,254.58,64a14.09,14.09,0,0,1-18.31,0,11,11,0,0,1-3.53-8.18v-17h7v16.8a4.28,4.28,0,0,0,1.68,3.39,6.06,6.06,0,0,0,4.05,1.41C248.3,60.33,251.16,58.29,251.16,55.53Z" />
      <path class="cls-2" d="M263.13,38.66l16.59,14.91V38.66h7.16v28.4h-1.56L268.77,52.19V67.06h-7.14V38.66Z" />
      <path class="cls-2"
        d="M299.16,38.75v0h.62a18.22,18.22,0,0,1,12,4.16,13.33,13.33,0,0,1,4,10,13.23,13.23,0,0,1-4,10,20.9,20.9,0,0,1-13.25,4.14h-8.16V38.75Zm.6,6.85h-1.82L298,60.16h.77c5.61,0,9.15-2.49,9.79-7.28C308.56,48.16,304.72,45.6,299.76,45.6Z" />
      <path class="cls-2"
        d="M332.26,38.5a14.87,14.87,0,0,1,10.68,4.24,13.9,13.9,0,0,1,0,20.33,15.71,15.71,0,0,1-21.36,0,13.94,13.94,0,0,1,0-20.33A14.87,14.87,0,0,1,332.26,38.5Zm0,7a7.38,7.38,0,0,0-5.46,2.17,6.74,6.74,0,0,0,0,10.46,8,8,0,0,0,10.91,0,6.59,6.59,0,0,0,2.5-5.22,6.68,6.68,0,0,0-2.5-5.23A7.45,7.45,0,0,0,332.26,45.48Z" />
      <path class="cls-3"
        d="M22.58.5A14.87,14.87,0,0,1,33.26,4.74a13.61,13.61,0,0,1,4.42,10.17,13.52,13.52,0,0,1-4.42,10.16,15,15,0,0,1-10.68,4.19A15,15,0,0,1,11.9,25.07,13.62,13.62,0,0,1,7.5,14.91,13.7,13.7,0,0,1,11.9,4.74,14.87,14.87,0,0,1,22.58.5Zm0,7a7.38,7.38,0,0,0-5.46,2.17,6.74,6.74,0,0,0,0,10.46,7.47,7.47,0,0,0,5.46,2.15A7.49,7.49,0,0,0,28,20.1a6.59,6.59,0,0,0,2.5-5.22A6.68,6.68,0,0,0,28,9.65,7.47,7.47,0,0,0,22.58,7.48Z" />
      <path class="cls-3" d="M52.11.66l13.7,18L79.48.66h1.43v28.4H74V18.61L65.81,29,57.62,18.6V29.06H50.69V.66Z" />
      <path class="cls-3" d="M84.42.66H104V7.57H91.68v3.86h9.44v6.91H91.68v3.87H104V29.1H84.42Z" />
      <path class="cls-3" d="M106.43.73h6.93V22.17H126v6.89H106.43Z" />
      <path class="cls-3" d="M128.44.73h6.91V11.45h9.47V.73h6.91V29.06h-6.91V18.32h-9.47V29.06h-6.91Z" />
      <path class="cls-3"
        d="M169.27.5A14.87,14.87,0,0,1,180,4.74a13.61,13.61,0,0,1,4.42,10.17A13.52,13.52,0,0,1,180,25.07a15.71,15.71,0,0,1-21.36,0,13.62,13.62,0,0,1-4.4-10.16,13.7,13.7,0,0,1,4.4-10.17A14.87,14.87,0,0,1,169.27.5Zm0,7a7.36,7.36,0,0,0-5.46,2.17,6.74,6.74,0,0,0,0,10.46,8,8,0,0,0,10.91,0,6.59,6.59,0,0,0,2.5-5.22,6.68,6.68,0,0,0-2.5-5.23A7.47,7.47,0,0,0,169.27,7.48Z" />
      <path class="cls-3"
        d="M186.85,29.06l0-28.33h10.36a17,17,0,0,1,4.93.72,9.94,9.94,0,0,1,3.65,2.21,8.15,8.15,0,0,1,2.93,6.59V11a9.17,9.17,0,0,1-1.91,5.52,6.81,6.81,0,0,1-3,2.43l6.81,10.16h-8.43L193.77,18V29.06Zm14.64-18.22a3,3,0,0,0-1.1-2.3,6.55,6.55,0,0,0-3.61-.94h-3v6.59h2.57v0h1.5A3.54,3.54,0,0,0,201.49,10.84Z" />
      <path class="cls-3" d="M224.34.66l13.7,18,13.67-18h1.43v28.4h-6.93V18.61L238,29,229.85,18.6V29.06h-6.93V.66Z" />
      <path class="cls-3" d="M256.65,29.06V.73h6.93V29.06Z" />
      <path class="cls-3" d="M267.09.73H274V22.17h12.62v6.89H267.09Z" />
      <path class="cls-3" d="M289.1.73H296V11.59L303.53.73h8l-9,14.36,10.49,14h-8.43L296,18.53V29.06H289.1Z" />
      <path class="cls-3"
        d="M319.7,20.1c0,1,1.25,2.07,2.6,2.24h.38c1.45,0,3-1.07,3-2.16,0-1.88-3.06-2.17-5.57-2.91-3.94-1.17-7.24-4-7.24-8,0-4.83,4.16-8.74,9.85-8.74,5.18,0,9.11,3.46,9.74,8l.07.55-7.27,1.47c0-1.75-.72-3-2.51-3a2.4,2.4,0,0,0-2.53,2.17c0,1.87,2.9,2.47,5.29,3.08,4,1,7.48,3.77,7.48,7.84,0,4.87-4.61,8.75-10.26,8.75-5.18,0-9.48-3.41-10.18-7.94l-.08-.56,7.24-1.47Z" />
      <path class="cls-3" d="M335.44.73h6.91V11.45h9.47V.73h6.91V29.06h-6.91V18.32h-9.47V29.06h-6.91Z" />
      <path class="cls-3"
        d="M361.19,29.06,374.86.76h1.63l13.69,28.3h-7.52l-2.1-4.3h-9.77l-2.1,4.3Zm12.66-9.94h3.65l-1.81-3.84Z" />
      <path class="cls-3" d="M392.63.73h6.91V11.59L407.06.73h8l-9,14.36,10.49,14H408.1l-8.56-10.53V29.06h-6.91Z" />
      <path class="cls-3" d="M419,.66h19.54V7.57H426.24v3.86h9.45v6.91h-9.45v3.87h12.29V29.1H419Z" />
      <path class="cls-3"
        d="M83.6,36.75v0h.61a18.18,18.18,0,0,1,12,4.16,13.34,13.34,0,0,1,4,10,13.24,13.24,0,0,1-4,10A20.9,20.9,0,0,1,83,65.06H74.82V36.75Zm.59,6.85H82.37l.07,14.56h.76c5.62,0,9.15-2.49,9.79-7.28C93,46.16,89.15,43.6,84.19,43.6Z" />
      <path class="cls-3"
        d="M116.69,36.5a14.87,14.87,0,0,1,10.68,4.24,13.9,13.9,0,0,1,0,20.33,15.69,15.69,0,0,1-21.35,0,13.92,13.92,0,0,1,0-20.33A14.85,14.85,0,0,1,116.69,36.5Zm0,7a7.38,7.38,0,0,0-5.46,2.17,6.75,6.75,0,0,0,0,10.46,8,8,0,0,0,10.91,0,6.59,6.59,0,0,0,2.5-5.22,6.68,6.68,0,0,0-2.5-5.23A7.43,7.43,0,0,0,116.69,43.48Z" />
      <path class="cls-3"
        d="M146.22,36.66l13.7,18,13.68-18H175v28.4h-6.93V54.61L159.92,65,151.73,54.6V65.06H144.8V36.66Z" />
      <path class="cls-3"
        d="M197,53.53V36.73h7v17A11,11,0,0,1,200.38,62a14.09,14.09,0,0,1-18.31,0,11,11,0,0,1-3.53-8.18v-17h7v16.8a4.28,4.28,0,0,0,1.68,3.39,6.06,6.06,0,0,0,4,1.41C194.1,58.33,197,56.29,197,53.53Z" />
      <path class="cls-3"
        d="M225.86,53.53V36.73h7v17A11,11,0,0,1,229.28,62,14.09,14.09,0,0,1,211,62a11,11,0,0,1-3.54-8.18v-17h7v16.8a4.29,4.29,0,0,0,1.69,3.39,6.06,6.06,0,0,0,4,1.41C223,58.33,225.86,56.29,225.86,53.53Z" />
      <path class="cls-3"
        d="M254.75,53.53V36.73h7v17A11,11,0,0,1,258.18,62a14.09,14.09,0,0,1-18.31,0,11,11,0,0,1-3.54-8.18v-17h7v16.8A4.29,4.29,0,0,0,245,56.92a6.05,6.05,0,0,0,4,1.41C251.89,58.33,254.75,56.29,254.75,53.53Z" />
      <path class="cls-3" d="M266.73,36.66l16.59,14.91V36.66h7.15v28.4h-1.56L272.37,50.19V65.06h-7.14V36.66Z" />
      <path class="cls-3"
        d="M302.76,36.75v0h.62a18.17,18.17,0,0,1,12,4.16,13.34,13.34,0,0,1,4,10,13.24,13.24,0,0,1-4,10c-3.5,2.76-8,4.14-13.25,4.14H294V36.75Zm.6,6.85h-1.83l.07,14.56h.76c5.62,0,9.16-2.49,9.8-7.28C312.16,46.16,308.31,43.6,303.36,43.6Z" />
      <path class="cls-3"
        d="M335.86,36.5a14.87,14.87,0,0,1,10.68,4.24,13.9,13.9,0,0,1,0,20.33,15.71,15.71,0,0,1-21.36,0,13.94,13.94,0,0,1,0-20.33A14.87,14.87,0,0,1,335.86,36.5Zm0,7a7.36,7.36,0,0,0-5.46,2.17,6.74,6.74,0,0,0,0,10.46,8,8,0,0,0,10.91,0,6.59,6.59,0,0,0,2.5-5.22,6.66,6.66,0,0,0-2.51-5.23A7.43,7.43,0,0,0,335.86,43.48Z" />
      <path class="cls-4"
        d="M342.58,73.62c.68-4.28,4.18-7.27,7.74-6.71s5.95,4.63,5.27,8.9-4.18,7.24-7.73,6.68S341.9,77.94,342.58,73.62Zm20.14-46.56L355.13,65.7l-9.08-1.43.14-1.11c1.74-13.09,2.8-23.89,4.35-36.8l.14-1.19Z" />
    </g>
  </g>
</svg>