<svg xmlns="http://www.w3.org/2000/svg" viewBox="0 0 326.43 216.25">
  <defs>
    <style>
      .cls-1 {
        fill: #ff4a86;
      }

      .cls-1,
      .cls-2,
      .cls-3,
      .cls-4 {
        stroke: #000;
        stroke-miterlimit: 10;
      }

      .cls-2 {
        fill: #7f3d87;
      }

      .cls-3 {
        fill: #fff;
      }

      .cls-4 {
        fill: #f8c3d1;
      }
    </style>
  </defs>
  <g id="Camada_2" data-name="Camada 2">
    <g id="Camada_2-2" data-name="Camada 2">
      <path class="cls-1"
        d="M34.68,9.32l43.37,57,43.31-57h4.5V99.27H103.93V66.15l-25.88,33-25.95-33V99.27H30.17V9.32Z" />
      <path class="cls-1" d="M137,99.27V9.54h21.93V99.27Z" />
      <path class="cls-1" d="M170.06,9.54H192V77.45h40V99.27h-61.9Z" />
      <path class="cls-1"
        d="M239.74,9.54h21.88V43.93L285.43,9.54h25.33L282.19,55,315.4,99.27H288.71L261.62,65.91V99.27H239.74Z" />
      <path class="cls-1"
        d="M39.92,141.58c0,2.07,2.46,4.09,5.14,4.43h.73c2.86,0,5.91-2.13,5.91-4.28,0-3.7-6-4.27-11-5.74-7.76-2.29-14.28-7.91-14.28-15.76,0-9.54,8.22-17.24,19.43-17.24,10.21,0,18,6.82,19.21,15.68l.15,1.08-14.35,2.89c0-3.43-1.41-5.92-4.94-5.92-2.7,0-5,1.92-5,4.27,0,3.69,5.71,4.88,10.43,6.08,8,2,14.74,7.42,14.74,15.46,0,9.6-9.09,17.26-20.22,17.26-10.22,0-18.71-6.72-20.07-15.67L25.64,143l14.28-2.91Z" />
      <path class="cls-1" d="M71,103.39H84.58v21.14h18.69V103.39h13.62v55.88H103.27V138.09H84.58v21.18H71Z" />
      <path class="cls-1"
        d="M121.75,159.27l26.95-55.82h3.23l27,55.82H164.09l-4.15-8.49H140.68l-4.14,8.49Zm25-19.62h7.2l-3.58-7.56Z" />
      <path class="cls-1"
        d="M183.76,103.39h13.63V124.8l14.83-21.41H228L210.2,131.7l20.68,27.57H214.26l-16.87-20.78v20.78H183.76Z" />
      <path class="cls-1" d="M235.74,103.25h38.55v13.62H250.05v7.63h18.62v13.62H250.05v7.63h24.24v13.59H235.74Z" />
      <path class="cls-1"
        d="M291,141.58c0,2.07,2.47,4.09,5.14,4.43h.74c2.85,0,5.91-2.13,5.91-4.28,0-3.7-6-4.27-11-5.74-7.76-2.29-14.28-7.91-14.28-15.76,0-9.54,8.22-17.24,19.42-17.24,10.22,0,18,6.82,19.21,15.68l.16,1.08-14.36,2.89c0-3.43-1.4-5.92-4.93-5.92-2.7,0-5,1.92-5,4.27,0,3.69,5.71,4.88,10.43,6.08,8,2,14.74,7.42,14.74,15.46,0,9.6-9.09,17.26-20.22,17.26-10.22,0-18.71-6.72-20.08-15.67l-.16-1.09L291,140.13Z" />
      <path class="cls-1"
        d="M30.35,164,55.08,196.5,79.77,164h2.57v51.29H69.83V196.39L55.08,215.23,40.29,196.38v18.89H27.78V164Z" />
      <path class="cls-1" d="M88.69,215.27V164.11h12.5v51.16Z" />
      <path class="cls-1"
        d="M110.11,164l24.72,32.52L159.53,164h2.57v51.29H149.59V196.39l-14.75,18.84L120,196.38v18.89h-12.5V164Z" />
      <path class="cls-1"
        d="M193.77,163.7c7.84,0,13.68,2.57,19.28,7.64a25.1,25.1,0,0,1,0,36.73c-5.58,5-11.42,7.55-19.28,7.55a27.1,27.1,0,0,1-19.28-7.56,25.18,25.18,0,0,1,0-36.72C180.09,166.27,185.93,163.7,193.77,163.7Zm0,12.6c-4.3,0-6.89,1.28-9.86,3.91a12.16,12.16,0,0,0-4.49,9.45,12,12,0,0,0,4.49,9.44c3,2.61,5.58,3.89,9.86,3.89s6.8-1.28,9.84-3.9a11.92,11.92,0,0,0,4.51-9.43,12.07,12.07,0,0,0-4.52-9.45C200.58,177.58,198,176.3,193.77,176.3Z" />
      <path class="cls-1"
        d="M250.8,163.7c7.84,0,13.69,2.57,19.28,7.64a25.1,25.1,0,0,1,0,36.73c-5.58,5-11.42,7.55-19.28,7.55s-13.71-2.56-19.27-7.56a25.16,25.16,0,0,1,0-36.72C237.12,166.27,243,163.7,250.8,163.7Zm0,12.6a13.31,13.31,0,0,0-9.86,3.91,12.17,12.17,0,0,0,0,18.89c3,2.61,5.59,3.89,9.87,3.89s6.79-1.28,9.83-3.9a11.9,11.9,0,0,0,4.52-9.43,12.07,12.07,0,0,0-4.52-9.45C257.62,177.58,255,176.3,250.81,176.3Z" />
      <path class="cls-1"
        d="M293.35,199.08c0,1.89,2.26,3.73,4.71,4h.67c2.62,0,5.41-1.95,5.41-3.92,0-3.39-5.53-3.91-10.06-5.25C287,191.87,281,186.73,281,179.54c0-8.73,7.53-15.79,17.78-15.79,9.36,0,16.46,6.25,17.59,14.36l.14,1-13.14,2.64c0-3.14-1.29-5.42-4.52-5.42-2.47,0-4.57,1.77-4.57,3.92,0,3.37,5.23,4.46,9.55,5.56,7.3,1.84,13.5,6.79,13.5,14.15,0,8.79-8.32,15.8-18.51,15.8-9.36,0-17.13-6.15-18.38-14.34l-.15-1,13.06-2.67Z" />
      <path class="cls-2"
        d="M39.28,5.5l43.37,57L126,5.5h4.5v90H108.53V62.33L82.65,95.38,56.71,62.32V95.45H34.78V5.5Z" />
      <path class="cls-2" d="M141.6,95.45V5.72h21.93V95.45Z" />
      <path class="cls-2" d="M174.66,5.72h21.93V73.63h40V95.45h-61.9Z" />
      <path class="cls-2"
        d="M244.35,5.72h21.87V40.11L290,5.72h25.33L286.8,51.19,320,95.45H293.31L266.22,62.09V95.45H244.35Z" />
      <path class="cls-2"
        d="M44.52,137.77c0,2.06,2.47,4.08,5.14,4.43h.73c2.86,0,5.92-2.12,5.92-4.28,0-3.7-6.05-4.27-11-5.73C37.55,129.89,31,124.27,31,116.42c0-9.53,8.22-17.24,19.42-17.24,10.22,0,18,6.82,19.21,15.68l.16,1.08-14.36,2.89c0-3.43-1.4-5.92-4.93-5.92-2.7,0-5,1.93-5,4.28,0,3.68,5.71,4.87,10.43,6.07,8,2,14.74,7.42,14.74,15.46,0,9.6-9.09,17.26-20.22,17.26-10.23,0-18.71-6.72-20.08-15.66l-.17-1.1,14.28-2.91Z" />
      <path class="cls-2" d="M75.56,99.57H89.19v21.15h18.68V99.57H121.5v55.88H107.87V134.27H89.19v21.18H75.56Z" />
      <path class="cls-2"
        d="M126.35,155.45l27-55.81h3.23l27,55.81H168.69L164.55,147H145.29l-4.14,8.49Zm25-19.62h7.2L155,128.27Z" />
      <path class="cls-2"
        d="M188.37,99.57H202V121l14.83-21.41H232.6l-17.79,28.32,20.68,27.56H218.87L202,134.67v20.78H188.37Z" />
      <path class="cls-2" d="M240.34,99.43h38.55v13.62H254.65v7.63h18.62v13.63H254.65v7.62h24.24v13.59H240.34Z" />
      <path class="cls-2"
        d="M295.59,137.77c0,2.06,2.46,4.08,5.14,4.43h.73c2.86,0,5.91-2.12,5.91-4.28,0-3.7-6-4.27-11-5.73-7.76-2.3-14.28-7.92-14.28-15.77,0-9.53,8.22-17.24,19.43-17.24,10.21,0,18,6.82,19.21,15.68l.15,1.08-14.35,2.89c0-3.43-1.41-5.92-4.94-5.92-2.7,0-5,1.93-5,4.28,0,3.68,5.71,4.87,10.43,6.07,8,2,14.74,7.42,14.74,15.46,0,9.6-9.09,17.26-20.22,17.26-10.22,0-18.71-6.72-20.07-15.66l-.17-1.1,14.28-2.91Z" />
      <path class="cls-2"
        d="M35,160.16l24.73,32.52,24.7-32.52h2.56v51.29H74.44V192.57L59.68,211.41,44.89,192.56v18.89H32.39V160.16Z" />
      <path class="cls-2" d="M93.29,211.45V160.29H105.8v51.16Z" />
      <path class="cls-2"
        d="M114.71,160.16l24.73,32.52,24.7-32.52h2.56v51.29H154.2V192.57l-14.76,18.84-14.79-18.85v18.89H112.14V160.16Z" />
      <path class="cls-2"
        d="M198.38,159.88c7.83,0,13.68,2.57,19.28,7.64a25.11,25.11,0,0,1,0,36.73c-5.57,5-11.42,7.55-19.28,7.55a27.08,27.08,0,0,1-19.27-7.55,25.19,25.19,0,0,1,0-36.72C184.69,162.45,190.54,159.88,198.38,159.88Zm0,12.6c-4.3,0-6.89,1.28-9.86,3.91a12.14,12.14,0,0,0-4.5,9.45,12,12,0,0,0,4.49,9.44c3,2.61,5.59,3.89,9.87,3.89s6.79-1.28,9.83-3.89a12.12,12.12,0,0,0,0-18.88C205.19,173.76,202.6,172.48,198.38,172.48Z" />
      <path class="cls-2"
        d="M255.41,159.88c7.84,0,13.68,2.57,19.28,7.64a25.12,25.12,0,0,1,0,36.73c-5.58,5-11.43,7.55-19.28,7.55a27.09,27.09,0,0,1-19.28-7.55,25.18,25.18,0,0,1,0-36.72C241.73,162.45,247.57,159.88,255.41,159.88Zm0,12.6c-4.3,0-6.89,1.28-9.86,3.91a12.16,12.16,0,0,0-4.49,9.45,12,12,0,0,0,4.48,9.44c3,2.61,5.59,3.89,9.87,3.89s6.79-1.28,9.84-3.89a12.13,12.13,0,0,0,0-18.88C262.22,173.76,259.64,172.48,255.41,172.48Z" />
      <path class="cls-2"
        d="M298,195.26c0,1.89,2.26,3.74,4.7,4.06h.68c2.61,0,5.41-1.95,5.41-3.92,0-3.38-5.54-3.91-10.07-5.25-7.11-2.1-13.08-7.24-13.08-14.43,0-8.73,7.53-15.78,17.79-15.78,9.35,0,16.46,6.24,17.59,14.35l.14,1L308,177.93c0-3.15-1.28-5.42-4.51-5.42-2.47,0-4.57,1.76-4.57,3.91,0,3.38,5.23,4.47,9.55,5.56,7.29,1.84,13.49,6.8,13.49,14.16,0,8.79-8.32,15.8-18.51,15.8-9.36,0-17.13-6.16-18.38-14.34l-.15-1L298,193.93Z" />
      <path class="cls-3" d="M43.28.5l43.37,57L130,.5h4.5v90H112.53V57.33L86.65,90.38,60.71,57.32V90.45H38.78V.5Z" />
      <path class="cls-3" d="M145.6,90.45V.72h21.93V90.45Z" />
      <path class="cls-3" d="M178.66.72h21.93V68.63h40V90.45h-61.9Z" />
      <path class="cls-3"
        d="M248.35.72h21.87V35.11L294,.72h25.33L290.8,46.19,324,90.45H297.31L270.22,57.09V90.45H248.35Z" />
      <path class="cls-3"
        d="M48.52,132.77c0,2.06,2.47,4.08,5.14,4.43h.73c2.86,0,5.92-2.12,5.92-4.28,0-3.7-6.05-4.27-11-5.73C41.55,124.89,35,119.27,35,111.42c0-9.53,8.22-17.24,19.42-17.24,10.22,0,18,6.82,19.21,15.68l.16,1.08-14.36,2.89c0-3.43-1.4-5.92-4.93-5.92-2.7,0-5,1.93-5,4.28,0,3.69,5.71,4.87,10.43,6.07,8,2,14.74,7.42,14.74,15.46,0,9.6-9.09,17.26-20.22,17.26-10.23,0-18.71-6.72-20.08-15.66l-.17-1.1,14.28-2.91Z" />
      <path class="cls-3" d="M79.56,94.57H93.19v21.15h18.68V94.57H125.5v55.88H111.87V129.27H93.19v21.18H79.56Z" />
      <path class="cls-3"
        d="M130.35,150.45l27-55.81h3.23l27,55.81H172.69L168.55,142H149.29l-4.14,8.49Zm25-19.62h7.2L159,123.27Z" />
      <path class="cls-3"
        d="M192.37,94.57H206V116l14.83-21.41H236.6l-17.79,28.32,20.68,27.56H222.87L206,129.67v20.78H192.37Z" />
      <path class="cls-3" d="M244.34,94.43h38.55v13.62H258.65v7.63h18.62v13.63H258.65v7.62h24.24v13.59H244.34Z" />
      <path class="cls-3"
        d="M299.59,132.77c0,2.06,2.46,4.08,5.14,4.43h.73c2.86,0,5.91-2.12,5.91-4.28,0-3.7-6-4.27-11-5.73-7.76-2.3-14.28-7.92-14.28-15.77,0-9.53,8.22-17.24,19.43-17.24,10.21,0,18,6.82,19.21,15.68l.15,1.08-14.35,2.89c0-3.43-1.41-5.92-4.94-5.92-2.7,0-5,1.93-5,4.28,0,3.69,5.71,4.87,10.43,6.07,8,2,14.74,7.42,14.74,15.46,0,9.6-9.09,17.26-20.22,17.26-10.22,0-18.71-6.72-20.07-15.66l-.17-1.1,14.28-2.91Z" />
      <path class="cls-3"
        d="M39,155.16l24.73,32.52,24.7-32.52h2.56v51.29H78.44V187.57L63.68,206.41,48.89,187.56v18.89H36.39V155.16Z" />
      <path class="cls-3" d="M97.29,206.45V155.29H109.8v51.16Z" />
      <path class="cls-3"
        d="M118.71,155.16l24.73,32.52,24.7-32.52h2.56v51.29H158.2V187.57l-14.76,18.84-14.79-18.85v18.89H116.14V155.16Z" />
      <path class="cls-3"
        d="M202.38,154.88c7.83,0,13.68,2.57,19.28,7.64a25.11,25.11,0,0,1,0,36.73c-5.57,5-11.42,7.55-19.28,7.55a27.08,27.08,0,0,1-19.27-7.55,25.19,25.19,0,0,1,0-36.72C188.69,157.45,194.54,154.88,202.38,154.88Zm0,12.6c-4.3,0-6.89,1.28-9.86,3.91a12.14,12.14,0,0,0-4.5,9.45,12,12,0,0,0,4.49,9.44c3,2.61,5.59,3.89,9.87,3.89s6.79-1.28,9.83-3.89a12.12,12.12,0,0,0,0-18.88C209.19,168.76,206.6,167.48,202.38,167.48Z" />
      <path class="cls-3"
        d="M259.41,154.88c7.84,0,13.68,2.57,19.28,7.64a25.12,25.12,0,0,1,0,36.73c-5.58,5-11.43,7.55-19.28,7.55a27.09,27.09,0,0,1-19.28-7.55,25.18,25.18,0,0,1,0-36.72C245.73,157.45,251.57,154.88,259.41,154.88Zm0,12.6c-4.3,0-6.89,1.28-9.86,3.91a12.16,12.16,0,0,0-4.49,9.45,12,12,0,0,0,4.48,9.44c3,2.61,5.59,3.89,9.87,3.89s6.79-1.28,9.84-3.89a12.13,12.13,0,0,0,0-18.88C266.22,168.76,263.64,167.48,259.41,167.48Z" />
      <path class="cls-3"
        d="M302,190.26c0,1.89,2.26,3.74,4.7,4.06h.68c2.61,0,5.41-1.95,5.41-3.92,0-3.38-5.54-3.91-10.07-5.25-7.11-2.1-13.08-7.24-13.08-14.43,0-8.73,7.53-15.78,17.79-15.78,9.35,0,16.46,6.24,17.59,14.35l.14,1L312,172.93c0-3.15-1.28-5.42-4.51-5.42-2.47,0-4.57,1.76-4.57,3.91,0,3.38,5.23,4.47,9.55,5.56,7.29,1.84,13.49,6.8,13.49,14.16,0,8.79-8.32,15.8-18.51,15.8-9.36,0-17.13-6.16-18.38-14.34l-.15-1L302,188.93Z" />
      <path class="cls-4"
        d="M22.76,185.32a19.15,19.15,0,0,1-14.39-3A17.3,17.3,0,0,1,.7,170.42a13.3,13.3,0,0,1,1.24-8.56A44,44,0,0,1,6,155.56a22.07,22.07,0,0,1-4.65-8.95A13.39,13.39,0,0,1,4.15,136c1.95-2.69,6.48-6.35,11.09-7.13a16.81,16.81,0,0,1,18.2,10l.45,1.09-12.55,4.89-.44-1.06a3.14,3.14,0,0,0-3.47-1.93c-2,.33-2.6,1.11-2.64,2.71A9.24,9.24,0,0,0,16.25,147c1.2,1.58,1.85,2.34,2.06,2.6,2.86,3.54,7.11,6.28,11.11,9.3.53.41,1,.78,1.47,1.09-.15-1.56-.36-2.92-.6-4.83l-.13-1.08,12.37-2.26.17,1.2c.73,5.12,1.17,9.45.29,13.48,1.74.67,4.57,1.87,6.77,1.42L51,167.7l2,12.16-1.16.2c-5.44.91-10-.75-13.63-2.13-.34-.13-.72-.3-1-.43C34.6,181.07,28.81,184.3,22.76,185.32Zm-9.45-16.87a6.36,6.36,0,0,0,2.7,3.76c.84.58,2.32.84,4.65.44a19.26,19.26,0,0,0,4.8-2.09l-3.91-2.43a33,33,0,0,1-6.3-5.06C14,164.52,12.72,165.56,13.31,168.45Z" />
    </g>
  </g>
</svg>