<svg xmlns="http://www.w3.org/2000/svg" viewBox="0 0 368.58 95.15">
  <defs>
    <style>
      .cls-1 {
        fill: #04bfad;
      }

      .cls-1,
      .cls-2,
      .cls-3 {
        stroke: #000;
        stroke-miterlimit: 10;
      }

      .cls-2 {
        fill: #ffb3cb;
      }

      .cls-3 {
        fill: #fff;
      }
    </style>
  </defs>
  <g id="Camada_2" data-name="Camada 2">
    <g id="Camada_2-2" data-name="Camada 2">
      <path class="cls-1"
        d="M21.68,67.72c0,3,3.65,6,7.6,6.55h1.09c4.22,0,8.74-3.14,8.74-6.32,0-5.48-8.94-6.32-16.27-8.49C11.36,56.07,1.72,47.76,1.72,36.15c0-14.1,12.16-25.5,28.73-25.5,15.11,0,26.59,10.09,28.41,23.19l.23,1.61L37.86,39.72c0-5.08-2.08-8.76-7.3-8.76-4,0-7.38,2.85-7.38,6.32,0,5.46,8.44,7.22,15.43,9,11.78,3,21.8,11,21.8,22.86,0,14.2-13.45,25.52-29.91,25.52C15.38,94.65,2.83,84.71.81,71.49L.57,69.87l21.11-4.31Z" />
      <path class="cls-1"
        d="M108.5,10.56c12.66,0,22.1,4.16,31.14,12.35,8.57,8.2,12.9,18.18,12.9,29.69a39.53,39.53,0,0,1-12.9,29.64c-9,8.1-18.45,12.2-31.15,12.2S86.34,90.31,77.36,82.23C68.82,74.06,64.51,64.11,64.51,52.6s4.31-21.45,12.84-29.68C86.4,14.71,95.84,10.56,108.5,10.56Zm0,20.35c-7,0-11.13,2.08-15.93,6.33s-7.26,9.33-7.26,15.26,2.38,11,7.25,15.25,9,6.28,15.94,6.28,11-2.06,15.89-6.29,7.29-9.22,7.29-15.24-2.39-11-7.3-15.26S115.32,30.91,108.5,30.91Z" />
      <path class="cls-1"
        d="M223.39,67.19a25.32,25.32,0,0,1-8,18.8c-5.45,5.21-13.11,7.88-21.91,7.88H159.72V11.23h24.86a31.18,31.18,0,0,1,20.49,7.09c5.42,4.56,7.87,10.06,7.87,16.3A23.09,23.09,0,0,1,210,44.86C218.12,48.66,223.39,57.8,223.39,67.19ZM184.58,31h-4.71V42.4l4.23-.3c3.32-.35,6.48-2.41,6.48-5.8C190.58,33.27,187.74,31,184.58,31ZM202.46,66a7.4,7.4,0,0,0-2.66-5.76,10.65,10.65,0,0,0-6.49-2.6c-4.8-.22-8.79-.08-13.44-.05V74.08h13.56C198.27,74.08,202.46,70.73,202.46,66Z" />
      <path class="cls-1"
        d="M230.62,93.87l-.05-82.64h30.22a50,50,0,0,1,14.38,2.09,29.29,29.29,0,0,1,10.65,6.47c5.22,5,8.53,9.92,8.53,19.2v2.06a26.69,26.69,0,0,1-5.56,16.08,20,20,0,0,1-8.71,7.1l19.86,29.64H275.38L250.82,61.58V93.87Zm42.72-53.16A8.7,8.7,0,0,0,270.1,34c-2.15-1.76-6.74-2.75-10.51-2.75h-8.82V50.5h7.5v0h4.38C268.18,50.55,273.34,46.4,273.34,40.71Z" />
      <path class="cls-1" d="M305.07,11h57V31.17H326.23V42.45h27.54V62.6H326.23V73.88h35.85V94h-57Z" />
      <path class="cls-2"
        d="M24.68,63.86c0,3,3.65,6,7.6,6.55h1.09c4.22,0,8.74-3.14,8.74-6.32,0-5.48-8.94-6.32-16.27-8.49C14.36,52.21,4.72,43.9,4.72,32.29c0-14.1,12.16-25.5,28.73-25.5C48.56,6.79,60,16.88,61.86,30l.23,1.6L40.86,35.86c0-5.08-2.08-8.76-7.3-8.76-4,0-7.38,2.85-7.38,6.32,0,5.46,8.44,7.21,15.43,9,11.78,3,21.8,11,21.8,22.86,0,14.2-13.45,25.52-29.91,25.52-15.12,0-27.67-9.94-29.69-23.16L3.57,66l21.11-4.3Z" />
      <path class="cls-2"
        d="M111.5,6.7c12.66,0,22.1,4.16,31.14,12.35,8.57,8.2,12.9,18.18,12.9,29.69a39.53,39.53,0,0,1-12.9,29.64c-9,8.1-18.45,12.2-31.15,12.2S89.34,86.45,80.36,78.37C71.82,70.2,67.51,60.25,67.51,48.74s4.31-21.45,12.84-29.68C89.4,10.85,98.84,6.7,111.5,6.7Zm0,20.35c-7,0-11.13,2.08-15.93,6.33s-7.26,9.33-7.26,15.26,2.38,11,7.25,15.25,9,6.28,15.94,6.28,11-2.06,15.89-6.29,7.29-9.22,7.29-15.24-2.39-11-7.3-15.26S118.32,27.05,111.5,27.05Z" />
      <path class="cls-2"
        d="M226.39,63.33a25.32,25.32,0,0,1-8,18.8C212.89,87.34,205.23,90,196.43,90H162.72V7.37h24.86a31.18,31.18,0,0,1,20.49,7.09c5.42,4.55,7.87,10.06,7.87,16.29A23.1,23.1,0,0,1,213,41C221.12,44.8,226.39,53.94,226.39,63.33ZM187.58,27.1h-4.71V38.54l4.23-.3c3.32-.35,6.48-2.41,6.48-5.8C193.58,29.41,190.74,27.1,187.58,27.1Zm17.88,35.07a7.4,7.4,0,0,0-2.66-5.76,10.65,10.65,0,0,0-6.49-2.6c-4.8-.22-8.79-.08-13.44-.05V70.22h13.56C201.27,70.22,205.46,66.87,205.46,62.17Z" />
      <path class="cls-2"
        d="M233.62,90l-.05-82.64h30.22a50,50,0,0,1,14.38,2.09,29.41,29.41,0,0,1,10.65,6.46c5.22,5,8.53,9.93,8.53,19.21v2.06a26.69,26.69,0,0,1-5.56,16.08,20,20,0,0,1-8.71,7.1L302.94,90H278.38L253.82,57.72V90Zm42.72-53.16a8.7,8.7,0,0,0-3.24-6.69c-2.15-1.76-6.74-2.75-10.51-2.75h-8.82V46.64h7.5v0h4.38C271.18,46.69,276.34,42.54,276.34,36.85Z" />
      <path class="cls-2" d="M308.07,7.16h57V27.31H329.23V38.59h27.54V58.74H329.23V70h35.85v20.1h-57Z" />
      <path class="cls-3"
        d="M27.68,57.66c0,3.05,3.65,6,7.6,6.55h1.09c4.22,0,8.74-3.14,8.74-6.32,0-5.48-8.94-6.32-16.27-8.49C17.36,46,7.72,37.7,7.72,26.09,7.72,12,19.88.59,36.45.59,51.56.59,63,10.68,64.86,23.78l.23,1.6L43.86,29.66c0-5.08-2.08-8.76-7.3-8.76-4,0-7.38,2.85-7.38,6.32,0,5.46,8.44,7.21,15.43,9,11.78,3,21.8,11,21.8,22.86,0,14.2-13.45,25.52-29.91,25.52-15.12,0-27.67-9.94-29.69-23.16L6.57,59.8l21.11-4.3Z" />
      <path class="cls-3"
        d="M114.5.5c12.66,0,22.1,4.16,31.14,12.35,8.57,8.2,12.9,18.18,12.9,29.69a39.53,39.53,0,0,1-12.9,29.64c-9,8.1-18.45,12.2-31.15,12.2S92.34,80.25,83.36,72.17C74.82,64,70.51,54,70.51,42.54s4.31-21.45,12.84-29.68C92.4,4.65,101.84.5,114.5.5Zm0,20.35c-7,0-11.13,2.08-15.93,6.33s-7.26,9.33-7.26,15.26,2.38,11,7.25,15.25,9,6.28,15.94,6.28,11-2.06,15.89-6.29,7.29-9.22,7.29-15.24-2.39-11-7.3-15.26S121.32,20.85,114.5,20.85Z" />
      <path class="cls-3"
        d="M229.39,57.13a25.32,25.32,0,0,1-8,18.8c-5.45,5.21-13.11,7.88-21.91,7.88H165.72V1.17h24.86a31.18,31.18,0,0,1,20.49,7.09c5.42,4.55,7.87,10.06,7.87,16.29A23.1,23.1,0,0,1,216,34.8C224.12,38.6,229.39,47.74,229.39,57.13ZM190.58,20.9h-4.71V32.34l4.23-.3c3.32-.35,6.48-2.41,6.48-5.8C196.58,23.21,193.74,20.9,190.58,20.9ZM208.46,56a7.4,7.4,0,0,0-2.66-5.76,10.65,10.65,0,0,0-6.49-2.6c-4.8-.22-8.79-.08-13.44,0V64h13.56C204.27,64,208.46,60.67,208.46,56Z" />
      <path class="cls-3"
        d="M236.62,83.81l-.05-82.64h30.22a50,50,0,0,1,14.38,2.09,29.41,29.41,0,0,1,10.65,6.46c5.22,5,8.53,9.93,8.53,19.21V31a26.69,26.69,0,0,1-5.56,16.08,20,20,0,0,1-8.71,7.1l19.86,29.64H281.38L256.82,51.52V83.81Zm42.72-53.16A8.7,8.7,0,0,0,276.1,24c-2.15-1.76-6.74-2.75-10.51-2.75h-8.82V40.44h7.5v.05h4.38C274.18,40.49,279.34,36.34,279.34,30.65Z" />
      <path class="cls-3" d="M311.07,1h57V21.11H332.23V32.39h27.54V52.54H332.23V63.82h35.85v20.1h-57Z" />
    </g>
  </g>
</svg>