<?xml version="1.0" encoding="UTF-8" standalone="no"?>
<!DOCTYPE svg PUBLIC "-//W3C//DTD SVG 1.1//EN" "http://www.w3.org/Graphics/SVG/1.1/DTD/svg11.dtd">
<svg width="100%" height="100%" viewBox="0 0 838 450" version="1.1" xmlns="http://www.w3.org/2000/svg" xmlns:xlink="http://www.w3.org/1999/xlink" xml:space="preserve" xmlns:serif="http://www.serif.com/" style="fill-rule:evenodd;clip-rule:evenodd;stroke-linejoin:round;stroke-miterlimit:1.41421;">
    <g transform="matrix(1,0,0,1,-81.4111,-275.043)">
        <g>
            <g transform="matrix(1,0,0,1,918.589,540.512)">
                <path d="M0,-265.469L-63.892,-265.469L-65.983,-255.661C-70.882,-232.834 -75.412,-208.57 -80.635,-186.149L-93.538,-188.232C-115.095,-190.897 -135.625,-185.448 -153.08,-173.991L-161.896,-167.832C-167.431,-163.689 -173.289,-158.477 -178.134,-153.655C-179.589,-152.208 -180.15,-151.141 -181.639,-149.683C-186.98,-144.441 -194.175,-134.57 -198.287,-128.419C-206.021,-116.811 -213.542,-102.808 -218.386,-88.156C-223.015,-74.172 -227.978,-53.587 -223.49,-36.229C-219.585,-21.093 -209.603,-8.825 -194.921,-4.433C-180.109,0 -154.884,-5.988 -144.375,-11.059C-132.703,-16.68 -117.758,-26.647 -111.48,-38.527L-108.395,-38.527C-108.395,-34.859 -115.623,-10.358 -115.882,-7.239L-52.433,-7.239L-19.646,-168.337C-17.478,-179.214 -15.439,-189.72 -13.119,-200.586L0,-265.469Z" style="fill:white;"/>
            </g>
            <g transform="matrix(1,0,0,1,572.259,350.834)">
                <path d="M0,186.842C28.503,186.842 53.479,177.142 75.348,160.407C76.848,159.264 78.196,158.024 79.696,156.817C86.233,151.539 93.754,143.524 98.955,136.868C104.553,129.692 110.229,121.116 114.264,112.96C121.125,99.117 127.781,79.869 127.781,63.461C127.781,48.538 126.24,38.755 117.523,27.006C114.405,22.797 109.483,17.953 105.221,15.072C101.899,12.807 98.943,10.821 95.328,9.106C84.054,3.745 68.874,0 56.404,0C36.303,0 26.788,1.221 7.982,7.985C4.099,9.377 -4.391,13.346 -8.189,15.613C-33.952,30.997 -51.615,50.806 -64.615,79.914C-67.236,85.783 -68.877,91.221 -70.882,97.446C-72.846,103.542 -73.882,110.919 -74.788,117.783L-75.285,129.057C-73.989,140.364 -73.288,146.664 -66.535,156.88C-56.824,171.618 -38.753,181.036 -21.772,184.392C-15.16,185.699 -7.662,186.842 0,186.842" style="fill:white;"/>
            </g>
            <g transform="matrix(1,0,0,1,371.339,349.561)">
                <path d="M0,188.115C28.503,188.115 53.479,178.415 75.348,161.68C83.601,155.369 92.544,146.352 98.955,138.141C109.657,124.416 118.363,108.773 123.185,91.867C129.27,70.548 131.363,46.953 117.52,28.279C112.019,20.855 103.625,14.329 95.328,10.379C93.442,9.473 91.716,8.794 89.763,8.018L83.883,5.965C65.8,0.077 45.431,0 26.691,3.734C15.74,5.913 5.436,9.647 -4.112,14.793L-11.816,18.988C-13.152,19.841 -14.177,20.576 -15.517,21.46C-18.138,23.208 -20.231,24.631 -22.722,26.583C-40.965,40.827 -54.592,58.746 -64.626,81.187C-67.248,87.056 -68.877,92.494 -70.882,98.719C-72.857,104.815 -73.882,112.192 -74.788,119.056L-75.285,130.33C-74,141.637 -73.288,147.937 -66.546,158.153C-61.475,165.834 -55.683,170.646 -48.118,175.427C-35.14,183.616 -15.795,188.115 0,188.115" style="fill:white;"/>
            </g>
            <g transform="matrix(1,0,0,1,216.238,504.184)">
                <path d="M0,-149.821L-22.471,-149.821L-27.65,-122.829C-28.061,-120.746 -28.893,-114.996 -29.517,-113.689L-7.488,-113.689L-17.185,-65.659C-17.853,-61.505 -18.803,-57.719 -19.635,-53.565C-20.507,-49.218 -21.079,-45.45 -22.029,-41.426L-26.841,-17.141C-29.636,-3.115 -34.168,17.295 -36.518,30.901L-46.262,79.32L18.071,79.32C18.071,76.312 19.637,70.355 20.231,67.388L56.404,-114.134L103.108,-114.134L108.505,-140.9C109.044,-143.629 110.154,-147.018 110.154,-150.266L63.008,-150.266C63.19,-152.464 63.914,-155.649 64.27,-157.817C65.554,-165.661 67.259,-171.649 70.937,-178.465C74.854,-185.737 83.452,-191.239 94.737,-191.239C106.917,-191.239 117.482,-190.767 128.841,-187.01C131.28,-186.201 134.796,-184.378 137.031,-184.196L144.529,-221.653C142.347,-222.689 138.226,-223.78 135.453,-224.482C131.937,-225.365 129.131,-226.078 125.389,-226.757C118.106,-228.064 110.447,-228.915 102.733,-229.141L94.704,-229.141C82.071,-228.763 69.579,-226.52 58.594,-221.664C49.748,-217.748 38.689,-211.815 31.84,-204.803C25.31,-198.124 22.485,-196.15 16.831,-187.626C9.247,-176.2 3.334,-164.117 0,-149.821" style="fill:white;"/>
            </g>
            <g transform="matrix(1,0,0,1,568.298,691.554)">
                <path d="M0,-75.434C-1.166,-73.697 -4.994,-70.46 -6.946,-68.723L-10.573,-65.734C-19.538,-58.755 -24.783,-55.054 -34.836,-49.022L-48.215,-41.686C-51.753,-40.23 -54.01,-38.816 -57.537,-37.35C-80.798,-27.694 -95.632,-22.449 -121.804,-18.77L-147.17,-16.818L-160.515,-17.585C-178.49,-19.925 -186.646,-20.693 -205.085,-28.092C-222.573,-35.115 -242.047,-47.157 -255.23,-60.34C-257.614,-62.724 -259.674,-64.795 -262.06,-67.17C-272.299,-77.409 -281.079,-90.851 -287.586,-103.788C-290.111,-108.815 -287.909,-108.05 -293.897,-108.05C-293.842,-105.848 -292.906,-102.493 -292.398,-100.28C-288.578,-83.504 -281.858,-66.394 -273.216,-52.054C-270.81,-48.074 -268.554,-44.318 -265.878,-40.446L-257.517,-29.42C-253.86,-24.728 -243.039,-13.097 -238.692,-9.471C-227.633,-0.224 -223.75,3.129 -211.202,10.628C-187.811,24.633 -158.065,33.403 -127.781,33.403C-92.934,33.403 -78.37,31.71 -45.928,22.744C-42.724,21.861 -39.38,20.607 -35.969,19.474C-27.208,16.563 -16.193,11.741 -8.371,7.855C-6.883,7.101 -5.739,6.452 -4.391,5.665C3.292,1.199 7.747,-0.851 16.119,-6.43L27.664,-14.716C30.782,-16.806 36.284,-22.126 38.775,-23.443L48.022,2.999C49.737,7.294 51.096,11.804 52.703,16.389C53.513,18.709 54.28,20.684 55.012,22.896C55.725,25.031 57.084,27.63 57.277,29.887L58.164,29.887C58.164,27.103 79.718,-79.944 83.604,-99.341C84.002,-101.371 84.855,-106.754 85.479,-108.05C83.515,-108.091 82.383,-108.514 79.751,-108.492L-16.743,-108.492C-19.582,-108.492 -41.807,-108.837 -41.816,-108.826C-43.349,-108.425 -42.55,-108.284 -41.893,-107.693L-7.303,-81.356C-5.88,-80.29 -4.974,-79.491 -3.593,-78.456C-2.361,-77.539 -0.798,-76.611 0,-75.434" style="fill:white;"/>
            </g>
            <g transform="matrix(1,0,0,1,81.4111,354.363)">
                <path d="M0,178.91L63.892,178.91L68.261,156.837C69.761,149.305 71.183,141.754 72.664,134.363L90.368,44.989C91.089,41.374 91.909,37.651 92.525,33.931L99.14,0L35.69,0L29.044,33.014C24.62,54.894 0.063,175.814 0,178.91" style="fill:white;"/>
            </g>
            <g transform="matrix(1,0,0,1,122.829,275.043)">
                <path d="M0,52.002L62.121,52.002C64.085,52.002 65.079,43.167 65.759,39.767L73.581,0L11.015,0C9.062,0.42 9.926,0.486 8.998,5.469L1.069,45.13C0.657,47.417 0,49.845 0,52.002" style="fill:white;"/>
            </g>
        </g>
    </g>
</svg>
