<?xml version="1.0" encoding="UTF-8" standalone="no"?>
<!DOCTYPE svg PUBLIC "-//W3C//DTD SVG 1.1//EN" "http://www.w3.org/Graphics/SVG/1.1/DTD/svg11.dtd">
<svg width="100%" height="100%" viewBox="0 0 368 60" version="1.1" xmlns="http://www.w3.org/2000/svg" xmlns:xlink="http://www.w3.org/1999/xlink" xml:space="preserve" xmlns:serif="http://www.serif.com/" style="fill-rule:evenodd;clip-rule:evenodd;stroke-linejoin:round;stroke-miterlimit:1.41421;">
    <g transform="matrix(1,0,0,1,-1.19,-1.25)">
        <g transform="matrix(1,0,0,1,-57,-57)">
            <path d="M228.06,81.56C222.59,81.56 218.71,85.84 218.71,92.41L218.71,116.51L210.36,116.51L210.36,74.09L218.61,74.09L218.61,79.27C220.68,75.778 224.493,73.676 228.55,73.79L231.55,73.79L231.55,81.56L228.06,81.56ZM204.59,95.3C204.59,82.65 195.59,73.19 183.41,73.19C171.491,73.271 161.728,83.1 161.728,95.019C161.728,95.113 161.729,95.207 161.73,95.3C161.73,107.94 171.48,117.5 184.2,117.5C191.404,117.636 198.24,114.252 202.5,108.44L196.44,104C193.62,107.935 189.04,110.244 184.2,110.17C177.206,110.137 171.223,104.949 170.2,98.03L204.61,98.03L204.59,95.3ZM170.38,91.41C171.87,84.94 177.04,80.56 183.31,80.56C189.58,80.56 194.74,84.94 196.14,91.41L170.38,91.41ZM135.28,73.19C129.646,73.195 124.241,75.454 120.28,79.46L120.28,58.25L111.93,58.25L111.93,116.51L120.18,116.51L120.18,111.13C124.175,115.172 129.617,117.464 135.3,117.5C135.457,117.503 135.614,117.505 135.771,117.505C147.927,117.505 157.931,107.502 157.931,95.345C157.931,83.188 147.927,73.185 135.771,73.185C135.614,73.185 135.457,73.187 135.3,73.19L135.28,73.19ZM134.68,110.04C134.657,110.04 134.633,110.04 134.61,110.04C126.551,110.04 119.92,103.409 119.92,95.35C119.92,87.291 126.551,80.66 134.61,80.66C142.669,80.66 149.3,87.291 149.3,95.35C149.3,95.367 149.3,95.383 149.3,95.4C149.3,95.407 149.3,95.413 149.3,95.42C149.3,103.418 142.718,110 134.72,110C134.707,110 134.693,110 134.68,110L134.68,110.04ZM81.18,109.64C89.24,109.64 95.5,103.46 95.5,94.2L95.5,58.25L104.15,58.25L104.15,116.51L95.6,116.51L95.6,111C91.565,115.17 85.992,117.51 80.19,117.47C67.76,117.47 58.19,108.41 58.19,94.67L58.19,58.25L67,58.25L67,94.25C67,103.56 73,109.64 81.18,109.64Z" style="fill:white;fill-rule:nonzero;"/>
        </g>
        <g transform="matrix(1,0,0,1,-57,-57)">
            <path d="M252.32,58.25L293.19,58.25L293.19,68.25L263.36,68.25L263.36,82.45L292.36,82.45L292.36,92.11L263.36,92.11L263.36,106.55L293.19,106.55L293.19,116.55L252.32,116.55L252.32,58.25ZM406.06,117.6C418.59,117.6 425.65,111.6 425.65,103.36C425.65,97.49 421.47,93.11 412.72,91.21L403.47,89.32C398.1,88.32 396.41,87.32 396.41,85.32C396.41,82.73 399,81.14 403.77,81.14C408.94,81.14 412.77,82.53 413.77,87.31L424.61,87.31C424.02,78.31 417.55,72.37 404.43,72.37C393.09,72.37 385.13,77.05 385.13,86.12C385.13,92.39 389.51,96.47 398.96,98.46L409.3,100.85C413.38,101.65 414.47,102.75 414.47,104.44C414.47,107.13 411.39,108.82 406.41,108.82C400.15,108.82 396.57,107.43 395.18,102.65L384.28,102.65C385.87,111.63 392.53,117.6 406.06,117.6ZM381.13,116.51L369.4,116.51C362.04,116.51 357.96,111.93 357.96,106.15L357.96,83.25L349.71,83.25L349.71,73.49L358,73.49L358,61.24L368.9,61.24L368.9,73.49L381.13,73.49L381.13,83.25L368.9,83.25L368.9,103.36C368.9,105.65 370.49,106.75 372.98,106.75L381.13,106.75L381.13,116.51ZM334.13,73.51L334.13,77.39C330.293,74.147 325.424,72.373 320.4,72.39C320.242,72.387 320.083,72.385 319.925,72.385C307.521,72.385 297.315,82.592 297.315,94.995C297.315,107.398 307.521,117.605 319.925,117.605C320.083,117.605 320.242,117.603 320.4,117.6C325.425,117.622 330.296,115.848 334.13,112.6L334.13,116.49L345,116.49L345,73.49L334.13,73.51ZM321.3,108.16C321.25,108.161 321.2,108.161 321.15,108.161C313.936,108.161 308,102.225 308,95.011C308,87.797 313.936,81.861 321.15,81.861C328.364,81.861 334.3,87.797 334.3,95.011C334.3,95.014 334.3,95.017 334.3,95.02C334.3,95.06 334.301,95.1 334.301,95.14C334.301,102.272 328.432,108.14 321.301,108.14C321.294,108.14 321.287,108.14 321.28,108.14L321.3,108.16Z" style="fill:white;fill-rule:nonzero;"/>
        </g>
    </g>
</svg>
