<?xml version="1.0" encoding="UTF-8" standalone="no"?>
<!DOCTYPE svg PUBLIC "-//W3C//DTD SVG 1.1//EN" "http://www.w3.org/Graphics/SVG/1.1/DTD/svg11.dtd">
<svg width="100%" height="100%" viewBox="0 0 152 165" version="1.1" xmlns="http://www.w3.org/2000/svg" xmlns:xlink="http://www.w3.org/1999/xlink" xml:space="preserve" xmlns:serif="http://www.serif.com/" style="fill-rule:evenodd;clip-rule:evenodd;stroke-linejoin:round;stroke-miterlimit:1.41421;">
    <g transform="matrix(0.941935,0,0,0.941935,-8.47727,-49.4878)">
        <g>
            <g transform="matrix(0.274832,0,0,0.274832,46.0154,151.907)">
                <path d="M0,-74.338C2.349,-77.664 4.548,-80.794 6.603,-83.73C8.656,-86.663 10.807,-89.498 13.059,-92.239C15.304,-94.977 17.85,-97.566 20.687,-100.016C23.522,-102.458 26.896,-104.857 30.811,-107.204C34.136,-109.158 37.459,-110.236 40.787,-110.433C44.113,-110.626 47.143,-109.745 49.886,-107.791C52.622,-105.834 54.97,-102.656 56.927,-98.255C58.881,-93.853 60.156,-88.03 60.743,-80.794C61.133,-75.315 61.082,-69.203 60.596,-62.455C60.105,-55.706 59.321,-48.809 58.248,-41.768C57.17,-34.725 55.901,-27.874 54.434,-21.225C52.966,-14.574 51.447,-8.609 49.886,-3.327C48.514,1.177 47.436,5.138 46.656,8.558C45.874,11.984 45.14,15.064 44.457,17.8C43.769,20.543 42.888,22.938 41.815,24.991C40.737,27.045 39.221,28.951 37.267,30.713C34.526,33.061 31.59,34.628 28.464,35.408C25.332,36.192 22.251,36.288 19.219,35.701C16.185,35.114 13.449,33.793 11.004,31.74C8.555,29.685 6.552,27 4.988,23.669C1.66,16.239 0.587,8.411 1.761,0.196C3.52,-10.758 5.181,-18.925 6.75,-24.308C8.312,-29.686 9.683,-33.991 10.857,-37.218C12.032,-40.447 13.059,-43.527 13.938,-46.463C14.818,-49.396 15.648,-53.798 16.433,-59.667C10.954,-51.644 6.649,-44.408 3.52,-37.952C0.39,-31.496 -2.105,-25.773 -3.961,-20.785C-5.823,-15.797 -7.387,-11.396 -8.656,-7.582C-9.931,-3.767 -11.642,-0.488 -13.791,2.248C-16.726,6.358 -20.444,8.608 -24.942,8.998C-29.446,9.393 -33.356,7.727 -36.68,4.01C-40.203,0.297 -42.402,-4.398 -43.283,-10.075C-44.163,-15.746 -44.31,-21.762 -43.723,-28.122C-43.136,-34.477 -42.159,-40.787 -40.787,-47.05C-39.423,-53.307 -38.148,-58.786 -36.973,-63.483C-38.345,-61.722 -39.372,-60.006 -40.056,-58.346C-40.742,-56.683 -41.475,-55.068 -42.255,-53.504C-47.734,-40.984 -52.039,-29.539 -55.167,-19.173C-58.298,-8.802 -61.183,0.15 -63.823,7.677C-66.465,15.211 -69.302,21.03 -72.334,25.137C-75.369,29.245 -79.522,31.497 -84.804,31.887C-93.416,32.282 -99.966,29.052 -104.466,22.204C-108.964,15.358 -111.31,7.14 -111.507,-2.446C-111.507,-9.877 -110.482,-18.485 -108.427,-28.269C-106.372,-38.048 -103.833,-47.635 -100.796,-57.027C-97.767,-66.416 -94.487,-75.118 -90.966,-83.143C-87.446,-91.161 -84.217,-97.126 -81.283,-101.043C-78.742,-104.169 -76.052,-106.325 -73.213,-107.497C-70.38,-108.671 -67.688,-109.061 -65.144,-108.671C-62.603,-108.277 -60.353,-107.153 -58.394,-105.298C-56.443,-103.435 -55.071,-101.043 -54.287,-98.108C-53.31,-94.193 -52.92,-90.379 -53.113,-86.663C-53.31,-82.945 -53.603,-79.228 -53.993,-75.512C-52.626,-76.687 -51.645,-77.907 -51.06,-79.182C-50.473,-80.45 -49.789,-81.675 -49.005,-82.849C-43.92,-91.257 -38.785,-97.273 -33.6,-100.897C-28.419,-104.513 -23.527,-105.981 -18.926,-105.298C-14.332,-104.61 -10.417,-101.871 -7.19,-97.08C-3.961,-92.285 -1.862,-85.783 -0.881,-77.567C-0.688,-77.173 -0.587,-76.732 -0.587,-76.246C-0.587,-75.755 -0.395,-75.118 0,-74.338" style="fill:white;fill-rule:nonzero;"/>
            </g>
            <g transform="matrix(0.274832,0,0,0.274832,74.2413,145.482)">
                <path d="M0,-97.326C-2.936,-97.326 -5.722,-98.06 -8.364,-99.528C-11.004,-100.993 -13.206,-102.901 -14.967,-105.248C-16.726,-107.596 -18.047,-110.238 -18.928,-113.172C-19.809,-116.105 -19.956,-119.137 -19.368,-122.268C-18.391,-127.352 -16.139,-131.806 -12.619,-135.62C-9.098,-139.434 -4.798,-140.852 0.294,-139.875C1.268,-139.678 2.346,-139.531 3.521,-139.434C4.695,-139.333 5.768,-139.09 6.747,-138.7C14.571,-136.941 19.366,-131.953 21.128,-123.735C21.715,-120.605 21.568,-117.472 20.687,-114.346C19.807,-111.213 18.385,-108.376 16.433,-105.835C14.474,-103.291 12.075,-101.236 9.243,-99.672C6.403,-98.106 3.323,-97.326 0,-97.326M17.605,-21.618C17.408,-13.79 17.21,-5.818 17.018,2.298C16.82,10.417 15.061,18.291 11.736,25.919C8.802,32.77 4.938,37.51 0.147,40.152C-4.651,42.792 -9.392,43.526 -14.087,42.352C-18.781,41.178 -22.99,38.198 -26.703,33.403C-30.423,28.612 -32.769,22.399 -33.746,14.768C-34.141,11.055 -34.333,6.457 -34.333,0.977C-34.333,-4.497 -34.04,-10.32 -33.453,-16.483C-32.866,-22.646 -32.035,-29.001 -30.96,-35.556C-29.886,-42.108 -28.662,-48.271 -27.29,-54.043C-25.926,-59.811 -24.311,-64.947 -22.449,-69.449C-20.593,-73.946 -18.685,-77.373 -16.726,-79.719C-13.206,-83.629 -8.906,-85.537 -3.816,-85.441C1.268,-85.34 5.576,-83.338 9.096,-79.425C11.635,-76.685 13.497,-73.015 14.671,-68.421C15.846,-63.823 16.676,-58.834 17.164,-53.456C17.651,-48.073 17.848,-42.599 17.752,-37.023C17.651,-31.448 17.605,-26.313 17.605,-21.618" style="fill:white;fill-rule:nonzero;"/>
            </g>
            <g transform="matrix(0.274832,0,0,0.274832,82.3378,122.281)">
                <path d="M0,82.609C0.358,78.715 1.157,73.779 2.392,67.801C3.628,61.827 5.15,55.435 6.953,48.625C8.757,41.819 10.717,34.926 12.832,27.948C14.945,20.973 16.952,14.623 18.855,8.904C20.203,4.903 22.689,-0.762 26.31,-8.09C29.929,-15.42 34.035,-22.705 38.631,-29.943C43.224,-37.184 48.114,-43.363 53.302,-48.485C58.487,-53.607 63.417,-55.955 68.092,-55.525C72.767,-55.096 76.006,-53.472 77.811,-50.655C79.615,-47.836 80.579,-44.456 80.709,-40.515C80.835,-36.572 80.4,-32.34 79.395,-27.819C78.392,-23.293 77.418,-19.108 76.476,-15.268C71.142,4.28 66.951,21.037 63.9,34.997C60.85,48.964 58.361,61.059 56.439,71.295C54.513,81.533 52.927,90.273 51.671,97.525C50.415,104.775 49.023,111.379 47.495,117.326C45.645,124.625 42.756,129.855 38.832,133.032C34.903,136.207 30.867,137.95 26.712,138.255C22.559,138.564 18.563,137.653 14.735,135.533C10.899,133.411 8.064,130.601 6.227,127.088C2.548,120.076 0.413,112.853 -0.181,105.43C-0.775,98.01 -0.716,90.404 0,82.609" style="fill:white;fill-rule:nonzero;"/>
            </g>
            <g transform="matrix(0.274832,0,0,0.274832,116.66,112.969)">
                <path d="M0,140.701C-1.172,145.006 -2.741,149.063 -4.695,152.879C-6.651,156.693 -8.903,160.462 -11.442,164.177C-14.575,168.872 -18.146,172.2 -22.153,174.154C-26.166,176.11 -30.077,176.894 -33.891,176.5C-37.707,176.11 -41.228,174.695 -44.455,172.246C-47.684,169.803 -50.177,166.523 -51.938,162.416C-56.046,152.049 -57.56,140.995 -56.486,129.256C-55.413,117.518 -53.113,104.512 -49.59,90.228C-47.831,82.797 -45.533,73.795 -42.696,63.232C-39.861,52.668 -36.68,41.861 -33.157,30.806C-29.636,19.756 -25.822,9.193 -21.715,-0.885C-17.605,-10.958 -13.401,-19.029 -9.096,-25.093C-4.011,-32.329 1.367,-35.996 7.043,-36.097C12.715,-36.193 17.116,-33.7 20.249,-28.616C21.811,-26.07 22.839,-22.843 23.329,-18.932C23.816,-15.015 24.013,-10.908 23.916,-6.607C23.816,-2.302 23.522,2.005 23.036,6.305C22.545,10.61 22.008,14.424 21.421,17.75C20.639,23.816 19.809,29.632 18.928,35.208C18.047,40.783 17.263,45.822 16.58,50.322C15.891,54.824 15.307,58.587 14.82,61.619C14.33,64.654 14.087,66.658 14.087,67.633C14.866,67.633 16.286,66.511 18.341,64.259C20.396,62.012 22.788,59.518 25.531,56.775C28.267,54.039 31.253,51.347 34.48,48.707C37.707,46.065 40.886,44.356 44.017,43.572C46.952,42.792 49.592,42.742 51.941,43.425C54.287,44.113 56.094,45.333 57.369,47.092C58.64,48.854 59.225,51.106 59.128,53.842C59.027,56.583 58.002,59.615 56.048,62.938C54.874,65.094 53.454,67.048 51.794,68.807C50.129,70.569 48.076,72.623 45.631,74.97C43.182,77.318 40.349,80.059 37.122,83.187C33.893,86.318 30.029,90.425 25.531,95.51C24.16,97.079 23.476,98.056 23.476,98.446C23.476,98.84 24.063,99.815 25.238,101.379C26.799,103.141 29.097,106.322 32.132,110.916C35.164,115.516 38.391,120.555 41.817,126.03C45.237,131.509 48.514,137.084 51.647,142.756C54.773,148.43 57.121,153.223 58.69,157.134C60.252,161.241 60.495,164.521 59.422,166.964C58.346,169.413 56.681,171.218 54.434,172.392C52.184,173.567 49.638,174.255 46.805,174.447C43.966,174.645 41.569,174.548 39.615,174.154C36.287,173.374 32.425,171.218 28.024,167.698C23.623,164.177 19.414,160.411 15.408,156.4C11.394,152.393 7.924,148.769 4.988,145.543C2.055,142.316 0.39,140.701 0,140.701" style="fill:white;fill-rule:nonzero;"/>
            </g>
            <g transform="matrix(0.274832,0,0,0.274832,157.917,172.308)">
                <path d="M0,-191.891C4.267,-192.441 7.801,-191.811 10.598,-190.002C13.394,-188.189 15.597,-185.663 17.196,-182.421C18.799,-179.173 19.982,-175.332 20.753,-170.896C21.519,-166.455 21.954,-161.924 22.059,-157.305C22.16,-152.682 22.158,-148.096 22.055,-143.548C21.95,-138.995 21.834,-134.938 21.701,-131.372C21.366,-123.24 20.858,-114.546 20.179,-105.288C19.494,-96.026 18.321,-86.75 16.661,-77.467C14.997,-68.177 12.659,-59.148 9.646,-50.38C6.635,-41.605 2.618,-33.748 -2.403,-26.786C-7.425,-19.829 -13.576,-13.956 -20.845,-9.172C-28.121,-4.389 -36.804,-1.35 -46.89,-0.051C-51.548,0.549 -56.134,0.55 -60.649,-0.052C-65.164,-0.655 -69.312,-1.85 -73.092,-3.627C-76.872,-5.411 -80.166,-7.648 -82.98,-10.343C-85.793,-13.04 -87.823,-16.183 -89.075,-19.765C-90.107,-23.182 -90.584,-26.524 -90.514,-29.787C-90.439,-33.05 -89.777,-35.947 -88.528,-38.476C-87.271,-41.003 -85.502,-42.956 -83.217,-44.338C-80.929,-45.712 -78.255,-46.01 -75.194,-45.223C-72.962,-44.719 -70.913,-43.749 -69.05,-42.314C-67.193,-40.877 -65.196,-39.557 -63.066,-38.352C-60.942,-37.145 -58.469,-36.328 -55.651,-35.905C-52.835,-35.477 -49.344,-35.926 -45.174,-37.254C-39.141,-39.407 -34.537,-42.322 -31.356,-45.985C-28.181,-49.65 -25.753,-53.364 -24.064,-57.134C-22.069,-61.532 -20.886,-66.122 -20.512,-70.904C-21.577,-69.976 -22.837,-69.023 -24.287,-68.052C-25.572,-67.294 -27.187,-66.444 -29.136,-65.503C-31.086,-64.559 -33.382,-63.625 -36.023,-62.692C-43.2,-60.189 -50.739,-60.154 -58.644,-62.591C-66.551,-65.02 -73.236,-69.832 -78.697,-77.021C-82.99,-82.779 -86.084,-89.183 -87.978,-96.24C-89.876,-103.291 -90.769,-110.622 -90.662,-118.232C-90.559,-125.835 -89.556,-133.361 -87.652,-140.81C-85.755,-148.25 -83.25,-155.23 -80.142,-161.747C-76.556,-169.112 -72.418,-174.133 -67.733,-176.808C-63.048,-179.481 -58.56,-180.6 -54.259,-180.169C-49.964,-179.733 -46.242,-177.995 -43.084,-174.953C-39.933,-171.904 -38.179,-168.234 -37.821,-163.944C-37.571,-162.002 -37.652,-158.788 -38.058,-154.296C-38.47,-149.806 -38.945,-144.715 -39.493,-139.023C-40.045,-133.33 -40.485,-127.55 -40.81,-121.693C-41.142,-115.83 -41.245,-110.491 -41.115,-105.677C-40.99,-100.858 -40.452,-97.081 -39.508,-94.345C-38.563,-91.606 -36.951,-90.579 -34.674,-91.27C-31.451,-92.277 -28.898,-95.415 -27.013,-100.69C-25.129,-105.962 -23.518,-112.235 -22.186,-119.506C-20.857,-126.778 -19.643,-134.575 -18.543,-142.905C-17.445,-151.228 -16.124,-158.943 -14.57,-166.051C-13.022,-173.153 -11.126,-179.116 -8.887,-183.943C-6.65,-188.766 -3.687,-191.416 0,-191.891" style="fill:white;fill-rule:nonzero;"/>
            </g>
            <g transform="matrix(0.274832,0,0,0.274832,51.288,193.764)">
                <path d="M0,-74.999C2.367,-78.354 4.588,-81.513 6.662,-84.474C8.732,-87.434 10.903,-90.291 13.173,-93.059C15.44,-95.819 18.006,-98.434 20.871,-100.903C23.729,-103.369 27.135,-105.789 31.084,-108.157C34.437,-110.128 37.792,-111.215 41.15,-111.414C44.505,-111.609 47.561,-110.72 50.329,-108.749C53.089,-106.773 55.459,-103.568 57.432,-99.128C59.404,-94.688 60.69,-88.813 61.283,-81.513C61.674,-75.985 61.623,-69.818 61.134,-63.009C60.639,-56.201 59.848,-49.243 58.765,-42.138C57.678,-35.034 56.396,-28.123 54.917,-21.415C53.436,-14.702 51.904,-8.684 50.329,-3.355C48.945,1.187 47.858,5.183 47.071,8.633C46.279,12.09 45.539,15.197 44.852,17.96C44.158,20.725 43.269,23.141 42.186,25.212C41.099,27.285 39.569,29.21 37.598,30.985C34.831,33.354 31.871,34.937 28.715,35.721C25.557,36.513 22.449,36.61 19.39,36.018C16.329,35.425 13.566,34.095 11.102,32.022C8.631,29.951 6.611,27.239 5.033,23.881C1.673,16.382 0.592,8.485 1.775,0.197C3.552,-10.854 5.227,-19.094 6.81,-24.525C8.385,-29.951 9.769,-34.294 10.954,-37.549C12.138,-40.807 13.173,-43.915 14.061,-46.874C14.95,-49.836 15.787,-54.276 16.579,-60.197C11.051,-52.101 6.708,-44.803 3.552,-38.29C0.393,-31.776 -2.124,-26.003 -3.996,-20.97C-5.875,-15.938 -7.453,-11.498 -8.735,-7.65C-10.019,-3.799 -11.745,-0.493 -13.916,2.27C-16.875,6.414 -20.626,8.684 -25.166,9.077C-29.708,9.475 -33.653,7.798 -37.005,4.045C-40.56,0.299 -42.779,-4.438 -43.667,-10.165C-44.556,-15.887 -44.704,-21.956 -44.111,-28.372C-43.519,-34.784 -42.533,-41.147 -41.152,-47.466C-39.773,-53.781 -38.486,-59.309 -37.302,-64.045C-38.685,-62.27 -39.722,-60.54 -40.411,-58.864C-41.106,-57.187 -41.846,-55.558 -42.63,-53.98C-48.158,-41.346 -52.504,-29.802 -55.658,-19.341C-58.816,-8.878 -61.727,0.15 -64.39,7.747C-67.056,15.346 -69.918,21.216 -72.977,25.36C-76.038,29.506 -80.231,31.776 -85.56,32.17C-94.246,32.568 -100.856,29.312 -105.394,22.401C-109.931,15.494 -112.301,7.205 -112.5,-2.469C-112.5,-9.966 -111.463,-18.65 -109.39,-28.521C-107.319,-38.387 -104.755,-48.059 -101.694,-57.532C-98.635,-67.007 -95.329,-75.786 -91.775,-83.882C-88.223,-91.971 -84.967,-97.989 -82.005,-101.939C-79.444,-105.095 -76.727,-107.268 -73.865,-108.453C-71.005,-109.637 -68.291,-110.031 -65.723,-109.637C-63.161,-109.239 -60.889,-108.106 -58.913,-106.234C-56.944,-104.355 -55.56,-101.939 -54.769,-98.98C-53.783,-95.03 -53.39,-91.18 -53.584,-87.434C-53.783,-83.683 -54.079,-79.93 -54.473,-76.184C-53.094,-77.368 -52.106,-78.599 -51.513,-79.884C-50.921,-81.165 -50.232,-82.401 -49.44,-83.586C-44.31,-92.068 -39.13,-98.138 -33.898,-101.791C-28.671,-105.442 -23.736,-106.921 -19.096,-106.234C-14.462,-105.54 -10.51,-102.777 -7.254,-97.943C-3.996,-93.105 -1.879,-86.545 -0.888,-78.257C-0.694,-77.859 -0.592,-77.415 -0.592,-76.924C-0.592,-76.429 -0.398,-75.786 0,-74.999" style="fill:white;fill-rule:nonzero;"/>
            </g>
            <g transform="matrix(0.274832,0,0,0.274832,87.8192,189.928)">
                <path d="M0,-53.642C-2.173,-49.889 -4.047,-46.092 -5.625,-42.244C-7.205,-38.394 -8.584,-34.495 -9.769,-30.55C-11.942,-23.046 -12.238,-15.549 -10.658,-8.05C-10.264,-6.865 -10.019,-5.629 -9.917,-4.35C-9.82,-3.063 -9.177,-2.226 -7.992,-1.832C-6.613,-1.434 -5.431,-1.731 -4.44,-2.721C-3.455,-3.707 -2.469,-4.692 -1.479,-5.68C2.268,-10.22 4.887,-14.859 6.365,-19.596C7.846,-24.332 8.536,-28.87 8.439,-33.213C8.337,-37.554 7.499,-41.55 5.921,-45.203C4.341,-48.852 2.369,-51.666 0,-53.642M-37.894,-84.134C-31.186,-91.24 -23.09,-95.185 -13.617,-95.976C-11.248,-96.171 -9.325,-96.124 -7.844,-95.828C-6.363,-95.532 -5.084,-95.185 -3.996,-94.792C-2.913,-94.394 -1.775,-94.051 -0.59,-93.755C0.592,-93.459 2.17,-93.408 4.146,-93.607C10.068,-94.199 15.345,-93.408 19.985,-91.24C24.619,-89.065 28.615,-86.059 31.975,-82.209C35.328,-78.361 38.139,-73.819 40.411,-68.592C42.679,-63.36 44.306,-57.981 45.296,-52.457C46.874,-43.968 47.022,-35.777 45.74,-27.884C44.454,-19.989 42.235,-12.092 39.079,-4.202C34.537,6.854 28.865,15.885 22.056,22.887C15.248,29.895 7.994,34.979 0.296,38.135C-7.4,41.293 -15.098,42.529 -22.794,41.835C-30.492,41.145 -37.404,38.725 -43.519,34.581C-49.637,30.437 -54.621,24.469 -58.469,16.669C-62.317,8.876 -64.242,-0.546 -64.242,-11.602C-64.242,-23.245 -62.368,-35.582 -58.617,-48.609C-54.869,-61.634 -47.959,-73.476 -37.894,-84.134" style="fill:white;fill-rule:nonzero;"/>
            </g>
            <g transform="matrix(0.274832,0,0,0.274832,120.363,189.928)">
                <path d="M0,-53.642C-2.173,-49.889 -4.047,-46.092 -5.625,-42.244C-7.205,-38.394 -8.584,-34.495 -9.769,-30.55C-11.942,-23.046 -12.238,-15.549 -10.658,-8.05C-10.264,-6.865 -10.019,-5.629 -9.917,-4.35C-9.82,-3.063 -9.177,-2.226 -7.992,-1.832C-6.613,-1.434 -5.431,-1.731 -4.44,-2.721C-3.455,-3.707 -2.469,-4.692 -1.479,-5.68C2.268,-10.22 4.887,-14.859 6.365,-19.596C7.846,-24.332 8.536,-28.87 8.439,-33.213C8.337,-37.554 7.499,-41.55 5.921,-45.203C4.341,-48.852 2.369,-51.666 0,-53.642M-37.894,-84.134C-31.186,-91.24 -23.09,-95.185 -13.617,-95.976C-11.248,-96.171 -9.325,-96.124 -7.844,-95.828C-6.363,-95.532 -5.084,-95.185 -3.996,-94.792C-2.913,-94.394 -1.775,-94.051 -0.59,-93.755C0.592,-93.459 2.17,-93.408 4.146,-93.607C10.068,-94.199 15.345,-93.408 19.985,-91.24C24.619,-89.065 28.615,-86.059 31.975,-82.209C35.328,-78.361 38.139,-73.819 40.411,-68.592C42.679,-63.36 44.306,-57.981 45.296,-52.457C46.874,-43.968 47.022,-35.777 45.74,-27.884C44.454,-19.989 42.235,-12.092 39.079,-4.202C34.537,6.854 28.865,15.885 22.056,22.887C15.248,29.895 7.994,34.979 0.296,38.135C-7.4,41.293 -15.098,42.529 -22.794,41.835C-30.492,41.145 -37.404,38.725 -43.519,34.581C-49.637,30.437 -54.621,24.469 -58.469,16.669C-62.317,8.876 -64.242,-0.546 -64.242,-11.602C-64.242,-23.245 -62.368,-35.582 -58.617,-48.609C-54.869,-61.634 -47.959,-73.476 -37.894,-84.134" style="fill:white;fill-rule:nonzero;"/>
            </g>
            <g transform="matrix(0.274832,0,0,0.274832,39.1739,85.3867)">
                <path d="M0,131.039C32.008,77.828 85.941,39.235 149.213,27.877C149.394,26.636 149.579,25.396 149.76,24.156C150.331,20.232 150.902,16.31 151.487,12.388C152.01,8.875 152.547,5.363 153.086,1.85C153.574,-1.34 154.063,-4.533 154.54,-7.725C154.944,-10.432 155.337,-13.139 155.73,-15.846C66.958,-4.852 -8.157,50.795 -46.399,127.852C-44.011,127.341 -41.654,127.209 -39.361,127.565C-35.62,128.145 -32.292,129.799 -29.462,132.478C-26.708,135.106 -24.781,138.445 -23.722,142.415C-23.345,143.92 -23.045,145.408 -22.818,146.885C-19.316,142.395 -15.759,138.906 -12.068,136.331C-8.001,133.489 -3.968,131.725 0,131.039" style="fill:white;fill-rule:nonzero;"/>
            </g>
            <g transform="matrix(0.274832,0,0,0.274832,142.406,101.981)">
                <path d="M0,69.782C0.927,69.768 1.849,69.787 2.764,69.88C8.383,70.449 13.314,72.747 17.429,76.708C21.596,80.737 23.958,85.655 24.458,91.331C24.752,93.744 24.676,97.182 24.229,102.126C23.816,106.629 23.341,111.729 22.791,117.429C22.696,118.406 22.624,119.406 22.535,120.392C24.486,126.889 26.149,133.51 27.497,140.244C27.839,138.659 28.168,137.021 28.479,135.325C29.791,128.146 30.999,120.371 32.075,112.218C33.197,103.727 34.561,95.776 36.134,88.586C37.765,81.107 39.813,74.676 42.226,69.476C43.182,67.416 44.24,65.721 45.349,64.324C11.295,-2.034 -50.303,-52.015 -124.245,-70.462L-126.675,-63.099C-126.799,-62.725 -126.909,-62.339 -127.02,-61.954L-127.219,-61.273L-137.565,-30.198C-79.457,-16.602 -30.163,20.161 0,69.782" style="fill:white;fill-rule:nonzero;"/>
            </g>
            <g transform="matrix(0.274832,0,0,0.274832,162.094,222.795)">
                <path d="M0,-232.174C-3.179,-222.908 -7.5,-214.457 -12.841,-207.051C-18.256,-199.547 -24.976,-193.127 -32.813,-187.969C-38.92,-183.955 -45.969,-181.047 -53.828,-179.264C-85.065,-96.19 -165.329,-36.918 -259.187,-36.918C-298.851,-36.918 -336.09,-47.503 -368.226,-65.995C-369.798,-65.245 -371.398,-64.622 -373.047,-64.213C-375.306,-63.646 -377.574,-63.362 -379.826,-63.362C-381.53,-63.362 -383.228,-63.525 -384.906,-63.851C-388.943,-64.63 -392.629,-66.403 -395.855,-69.116C-398.963,-71.722 -401.523,-75.134 -403.458,-79.251C-405.719,-84.296 -407.057,-89.507 -407.524,-94.848C-407.852,-98.593 -407.765,-102.399 -407.213,-106.264C-406.931,-108.025 -406.651,-109.713 -406.373,-111.328C-407.85,-106.936 -409.873,-103.071 -412.394,-99.838C-412.446,-99.765 -412.505,-99.703 -412.558,-99.631C-416.467,-94.326 -421.737,-91.234 -427.834,-90.705C-434.214,-90.141 -439.987,-92.558 -444.56,-97.673C-448.812,-102.152 -451.573,-107.991 -452.647,-114.894C-453.034,-117.394 -453.291,-119.965 -453.42,-122.596C-456.511,-112.381 -459.403,-103.418 -462.025,-95.941C-462.415,-94.828 -462.81,-93.758 -463.208,-92.717C-415.225,-32.968 -341.603,5.355 -259.187,5.355C-121.236,5.355 -7.898,-101.985 1.724,-237.529C1.167,-235.733 0.607,-233.94 0,-232.174" style="fill:white;fill-rule:nonzero;"/>
            </g>
            <g transform="matrix(0.274832,0,0,0.274832,29.9976,173.292)">
                <path d="M0,-68.193C-2.862,-60.03 -5.915,-53.813 -9.328,-49.189C-13.357,-43.735 -19.153,-40.582 -26.091,-40.07C-30.384,-39.873 -34.316,-40.464 -37.871,-41.748C-35.688,-25.187 -31.948,-9.112 -26.807,6.331C-24.55,-0.014 -22.171,-6.084 -19.683,-11.753C-15.919,-20.33 -12.502,-26.617 -9.236,-30.972C-5.922,-35.061 -2.404,-37.834 1.358,-39.389C2.592,-39.902 3.82,-40.262 5.042,-40.553C3.229,-51.623 2.247,-62.968 2.164,-74.524C1.425,-72.311 0.702,-70.193 0,-68.193" style="fill:white;fill-rule:nonzero;"/>
            </g>
            <g transform="matrix(0.269727,0.052727,0.052727,-0.269727,81.6727,96.0334)">
                <path d="M1.822,-6.94L69.677,-6.94L71.838,18.006L-0.339,18.006L1.822,-6.94Z" style="fill:white;fill-rule:nonzero;"/>
            </g>
            <g transform="matrix(0.269726,0.0527294,0.0527294,-0.269726,82.969,86.629)">
                <path d="M1.225,-7.406L74.325,-7.406L76.654,11.777L-1.103,11.778L1.225,-7.406Z" style="fill:white;fill-rule:nonzero;"/>
            </g>
            <g transform="matrix(0.269726,0.0527297,0.0527297,-0.269726,83.7387,78.618)">
                <path d="M0.805,-7.929L80.253,-7.929L82.018,7.652L-0.959,7.652L0.805,-7.929Z" style="fill:white;fill-rule:nonzero;"/>
            </g>
            <g transform="matrix(0.274832,0,0,0.274832,107.627,59.365)">
                <path d="M0,59.808C1.916,39.639 -10.767,20.831 -30.192,15.049L-25.215,-10.412L-34.931,-12.311L-39.945,13.342C-59.496,12.196 -77.479,24.672 -83.142,43.555L-93.153,41.598L-95.19,52.021L7.62,72.119L9.657,61.696L0,59.808Z" style="fill:white;fill-rule:nonzero;"/>
            </g>
        </g>
    </g>
</svg>
