<?xml version="1.0" encoding="UTF-8" standalone="no"?>
<!DOCTYPE svg PUBLIC "-//W3C//DTD SVG 1.1//EN" "http://www.w3.org/Graphics/SVG/1.1/DTD/svg11.dtd">
<svg width="100%" height="100%" viewBox="0 0 1440 245" version="1.1" xmlns="http://www.w3.org/2000/svg" xmlns:xlink="http://www.w3.org/1999/xlink" xml:space="preserve" xmlns:serif="http://www.serif.com/" style="fill-rule:evenodd;clip-rule:evenodd;stroke-linejoin:round;stroke-miterlimit:1.41421;">
    <g transform="matrix(1,0,0,1,0,-75.7108)">
        <path d="M0,192L34.3,181.3C68.6,171 137,149 206,122.7C274.3,96 343,64 411,80C480,96 549,160 617,165.3C685.7,171 754,117 823,112C891.4,107 960,149 1029,165.3C1097.1,181 1166,171 1234,165.3C1302.9,160 1371,160 1406,160L1440,160L1440,320L1405.7,320L34,320L0,320L0,192Z" style="fill:rgb(11,10,21);fill-rule:nonzero;"/>
    </g>
</svg>
